<?xml version="1.0" encoding="UTF-8"?>
<!DOCTYPE svg PUBLIC "-//W3C//DTD SVG 1.1//EN" "http://www.w3.org/Graphics/SVG/1.1/DTD/svg11.dtd">
<svg width="336mm" height="240mm" viewBox="0 0 33600 24000">
 <path fill="rgb(255,255,255)" stroke="none" d="M 16856,24011 L 34,24011 34,0 33677,0 33677,24011 16856,24011 Z"/>
 <path fill="none" stroke="rgb(179,179,179)" stroke-linejoin="round" d="M 14401,21903 L 2709,21903 2709,3061 26092,3061 26092,21903 14401,21903 Z"/>
 <path fill="none" stroke="rgb(179,179,179)" stroke-linejoin="round" d="M 26092,21902 L 2709,21902"/>
 <path fill="none" stroke="rgb(179,179,179)" stroke-linejoin="round" d="M 26092,20017 L 2709,20017"/>
 <path fill="none" stroke="rgb(179,179,179)" stroke-linejoin="round" d="M 26092,18133 L 2709,18133"/>
 <path fill="none" stroke="rgb(179,179,179)" stroke-linejoin="round" d="M 26092,16249 L 2709,16249"/>
 <path fill="none" stroke="rgb(179,179,179)" stroke-linejoin="round" d="M 26092,14364 L 2709,14364"/>
 <path fill="none" stroke="rgb(179,179,179)" stroke-linejoin="round" d="M 26092,12480 L 2709,12480"/>
 <path fill="none" stroke="rgb(179,179,179)" stroke-linejoin="round" d="M 26092,10597 L 2709,10597"/>
 <path fill="none" stroke="rgb(179,179,179)" stroke-linejoin="round" d="M 26092,8712 L 2709,8712"/>
 <path fill="none" stroke="rgb(179,179,179)" stroke-linejoin="round" d="M 26092,6828 L 2709,6828"/>
 <path fill="none" stroke="rgb(179,179,179)" stroke-linejoin="round" d="M 26092,4944 L 2709,4944"/>
 <path fill="none" stroke="rgb(179,179,179)" stroke-linejoin="round" d="M 26092,3060 L 2709,3060"/>
 <path fill="none" stroke="rgb(179,179,179)" stroke-linejoin="round" d="M 2709,22052 L 2709,21902"/>
 <path fill="none" stroke="rgb(179,179,179)" stroke-linejoin="round" d="M 2709,22052 L 2709,21902"/>
 <path fill="none" stroke="rgb(179,179,179)" stroke-linejoin="round" d="M 3939,22052 L 3939,21902"/>
 <path fill="none" stroke="rgb(179,179,179)" stroke-linejoin="round" d="M 3939,22052 L 3939,21902"/>
 <path fill="none" stroke="rgb(179,179,179)" stroke-linejoin="round" d="M 5170,22052 L 5170,21902"/>
 <path fill="none" stroke="rgb(179,179,179)" stroke-linejoin="round" d="M 5170,22052 L 5170,21902"/>
 <path fill="none" stroke="rgb(179,179,179)" stroke-linejoin="round" d="M 6401,22052 L 6401,21902"/>
 <path fill="none" stroke="rgb(179,179,179)" stroke-linejoin="round" d="M 6401,22052 L 6401,21902"/>
 <path fill="none" stroke="rgb(179,179,179)" stroke-linejoin="round" d="M 7631,22052 L 7631,21902"/>
 <path fill="none" stroke="rgb(179,179,179)" stroke-linejoin="round" d="M 7631,22052 L 7631,21902"/>
 <path fill="none" stroke="rgb(179,179,179)" stroke-linejoin="round" d="M 8862,22052 L 8862,21902"/>
 <path fill="none" stroke="rgb(179,179,179)" stroke-linejoin="round" d="M 8862,22052 L 8862,21902"/>
 <path fill="none" stroke="rgb(179,179,179)" stroke-linejoin="round" d="M 10093,22052 L 10093,21902"/>
 <path fill="none" stroke="rgb(179,179,179)" stroke-linejoin="round" d="M 10093,22052 L 10093,21902"/>
 <path fill="none" stroke="rgb(179,179,179)" stroke-linejoin="round" d="M 11324,22052 L 11324,21902"/>
 <path fill="none" stroke="rgb(179,179,179)" stroke-linejoin="round" d="M 11324,22052 L 11324,21902"/>
 <path fill="none" stroke="rgb(179,179,179)" stroke-linejoin="round" d="M 12554,22052 L 12554,21902"/>
 <path fill="none" stroke="rgb(179,179,179)" stroke-linejoin="round" d="M 12554,22052 L 12554,21902"/>
 <path fill="none" stroke="rgb(179,179,179)" stroke-linejoin="round" d="M 13785,22052 L 13785,21902"/>
 <path fill="none" stroke="rgb(179,179,179)" stroke-linejoin="round" d="M 13785,22052 L 13785,21902"/>
 <path fill="none" stroke="rgb(179,179,179)" stroke-linejoin="round" d="M 15016,22052 L 15016,21902"/>
 <path fill="none" stroke="rgb(179,179,179)" stroke-linejoin="round" d="M 15016,22052 L 15016,21902"/>
 <path fill="none" stroke="rgb(179,179,179)" stroke-linejoin="round" d="M 16247,22052 L 16247,21902"/>
 <path fill="none" stroke="rgb(179,179,179)" stroke-linejoin="round" d="M 16247,22052 L 16247,21902"/>
 <path fill="none" stroke="rgb(179,179,179)" stroke-linejoin="round" d="M 17476,22052 L 17476,21902"/>
 <path fill="none" stroke="rgb(179,179,179)" stroke-linejoin="round" d="M 17476,22052 L 17476,21902"/>
 <path fill="none" stroke="rgb(179,179,179)" stroke-linejoin="round" d="M 18707,22052 L 18707,21902"/>
 <path fill="none" stroke="rgb(179,179,179)" stroke-linejoin="round" d="M 18707,22052 L 18707,21902"/>
 <path fill="none" stroke="rgb(179,179,179)" stroke-linejoin="round" d="M 19938,22052 L 19938,21902"/>
 <path fill="none" stroke="rgb(179,179,179)" stroke-linejoin="round" d="M 19938,22052 L 19938,21902"/>
 <path fill="none" stroke="rgb(179,179,179)" stroke-linejoin="round" d="M 21169,22052 L 21169,21902"/>
 <path fill="none" stroke="rgb(179,179,179)" stroke-linejoin="round" d="M 21169,22052 L 21169,21902"/>
 <path fill="none" stroke="rgb(179,179,179)" stroke-linejoin="round" d="M 22399,22052 L 22399,21902"/>
 <path fill="none" stroke="rgb(179,179,179)" stroke-linejoin="round" d="M 22399,22052 L 22399,21902"/>
 <path fill="none" stroke="rgb(179,179,179)" stroke-linejoin="round" d="M 23630,22052 L 23630,21902"/>
 <path fill="none" stroke="rgb(179,179,179)" stroke-linejoin="round" d="M 23630,22052 L 23630,21902"/>
 <path fill="none" stroke="rgb(179,179,179)" stroke-linejoin="round" d="M 24861,22052 L 24861,21902"/>
 <path fill="none" stroke="rgb(179,179,179)" stroke-linejoin="round" d="M 24861,22052 L 24861,21902"/>
 <path fill="none" stroke="rgb(179,179,179)" stroke-linejoin="round" d="M 26092,22052 L 26092,21902"/>
 <path fill="none" stroke="rgb(179,179,179)" stroke-linejoin="round" d="M 26092,22052 L 26092,21902"/>
 <path fill="none" stroke="rgb(179,179,179)" stroke-linejoin="round" d="M 2709,21902 L 26092,21902"/>
 <path fill="none" stroke="rgb(179,179,179)" stroke-linejoin="round" d="M 2559,21902 L 2709,21902"/>
 <path fill="none" stroke="rgb(179,179,179)" stroke-linejoin="round" d="M 2559,21902 L 2709,21902"/>
 <path fill="none" stroke="rgb(179,179,179)" stroke-linejoin="round" d="M 2559,20017 L 2709,20017"/>
 <path fill="none" stroke="rgb(179,179,179)" stroke-linejoin="round" d="M 2559,20017 L 2709,20017"/>
 <path fill="none" stroke="rgb(179,179,179)" stroke-linejoin="round" d="M 2559,18133 L 2709,18133"/>
 <path fill="none" stroke="rgb(179,179,179)" stroke-linejoin="round" d="M 2559,18133 L 2709,18133"/>
 <path fill="none" stroke="rgb(179,179,179)" stroke-linejoin="round" d="M 2559,16249 L 2709,16249"/>
 <path fill="none" stroke="rgb(179,179,179)" stroke-linejoin="round" d="M 2559,16249 L 2709,16249"/>
 <path fill="none" stroke="rgb(179,179,179)" stroke-linejoin="round" d="M 2559,14364 L 2709,14364"/>
 <path fill="none" stroke="rgb(179,179,179)" stroke-linejoin="round" d="M 2559,14364 L 2709,14364"/>
 <path fill="none" stroke="rgb(179,179,179)" stroke-linejoin="round" d="M 2559,12480 L 2709,12480"/>
 <path fill="none" stroke="rgb(179,179,179)" stroke-linejoin="round" d="M 2559,12480 L 2709,12480"/>
 <path fill="none" stroke="rgb(179,179,179)" stroke-linejoin="round" d="M 2559,10597 L 2709,10597"/>
 <path fill="none" stroke="rgb(179,179,179)" stroke-linejoin="round" d="M 2559,10597 L 2709,10597"/>
 <path fill="none" stroke="rgb(179,179,179)" stroke-linejoin="round" d="M 2559,8712 L 2709,8712"/>
 <path fill="none" stroke="rgb(179,179,179)" stroke-linejoin="round" d="M 2559,8712 L 2709,8712"/>
 <path fill="none" stroke="rgb(179,179,179)" stroke-linejoin="round" d="M 2559,6828 L 2709,6828"/>
 <path fill="none" stroke="rgb(179,179,179)" stroke-linejoin="round" d="M 2559,6828 L 2709,6828"/>
 <path fill="none" stroke="rgb(179,179,179)" stroke-linejoin="round" d="M 2559,4944 L 2709,4944"/>
 <path fill="none" stroke="rgb(179,179,179)" stroke-linejoin="round" d="M 2559,4944 L 2709,4944"/>
 <path fill="none" stroke="rgb(179,179,179)" stroke-linejoin="round" d="M 2559,3059 L 2709,3059"/>
 <path fill="none" stroke="rgb(179,179,179)" stroke-linejoin="round" d="M 2559,3059 L 2709,3059"/>
 <path fill="none" stroke="rgb(179,179,179)" stroke-linejoin="round" d="M 2709,21902 L 2709,3060"/>
 <path fill="none" stroke="rgb(0,69,134)" stroke-width="80" stroke-linejoin="round" d="M 2709,21355 L 3939,20677 5170,19621 6401,18717 7631,18076 8862,17021 10093,16117 11324,15118 12554,14232 13785,13460 15016,12857 16247,12065 17476,11200 18707,10276 19938,9673 21169,8543 22399,7846 23630,6508 24861,5811 26092,4963"/>
 <path fill="none" stroke="rgb(255,66,14)" stroke-width="80" stroke-linejoin="round" d="M 2709,21374 L 3939,20752 5170,19923 6401,19132 7631,18604 8862,17681 10093,17040 11324,16192 12554,15420 13785,14590 15016,14082 16247,13479 17476,12555 18707,11840 19938,10936 21169,10616 22399,9730 23630,8675 24861,8015 26092,7676"/>
 <path fill="none" stroke="rgb(255,211,32)" stroke-width="80" stroke-linejoin="round" d="M 2709,21242 L 3939,20488 5170,19603 6401,18887 7631,18227 8862,17228 10093,16192 11324,15683 12554,15005 13785,14138 15016,13592 16247,12668 17476,11727 18707,11200 19938,9843 21169,9711 22399,8562 23630,7450 24861,6922 26092,5999"/>
 <path fill="none" stroke="rgb(87,157,28)" stroke-width="80" stroke-linejoin="round" d="M 2709,21261 L 3939,20507 5170,19565 6401,18924 7631,18227 8862,17417 10093,16267 11324,15589 12554,15061 13785,13969 15016,13535 16247,12650 17476,11708 18707,11350 19938,10031 21169,10069 22399,8580 23630,7280 24861,6790 26092,5905"/>
 <path fill="none" stroke="rgb(126,0,33)" stroke-width="80" stroke-linejoin="round" d="M 2709,21261 L 3939,20488 5170,19471 6401,18924 7631,18189 8862,17228 10093,15985 11324,15457 12554,14873 13785,13686 15016,13102 16247,12329 17476,10974 18707,10672 19938,9560 21169,9428 22399,7921 23630,6696 24861,5867 26092,5170"/>
 <path fill="none" stroke="rgb(131,202,255)" stroke-width="80" stroke-linejoin="round" d="M 2709,21374 L 3939,20714 5170,19923 6401,19094 7631,18604 8862,17643 10093,16889 11324,16098 12554,15401 13785,14703 15016,14119 16247,13611 17476,12367 18707,11803 19938,11143 21169,10747 22399,9692 23630,8562 24861,7808 26092,7488"/>
 <path fill="none" stroke="rgb(49,64,4)" stroke-width="80" stroke-linejoin="round" d="M 2709,21374 L 3939,20714 5170,19923 6401,19094 7631,18604 8862,17643 10093,16889 11324,16098 12554,15401 13785,14703 15016,14119 16247,13611 17476,12367 18707,11803 19938,11143 21169,10747 22399,9692 23630,8562 24861,7808 26092,7488"/>
 <path fill="none" stroke="rgb(174,207,0)" stroke-width="80" stroke-linejoin="round" d="M 2709,21374 L 3939,20714 5170,19923 6401,19094 7631,18604 8862,17643 10093,16889 11324,16098 12554,15401 13785,14703 15016,14119 16247,13611 17476,12367 18707,11803 19938,11143 21169,10747 22399,9692 23630,8562 24861,7808 26092,7488"/>
 <text class="TextShape"><tspan class="TextParagraph" font-family="Arial" font-size="353px" font-weight="400"><tspan class="TextPosition" x="2616" y="22470"><tspan fill="rgb(0,0,0)" stroke="none">2</tspan></tspan></tspan></text>
 <text class="TextShape"><tspan class="TextParagraph" font-family="Arial" font-size="353px" font-weight="400"><tspan class="TextPosition" x="3846" y="22470"><tspan fill="rgb(0,0,0)" stroke="none">4</tspan></tspan></tspan></text>
 <text class="TextShape"><tspan class="TextParagraph" font-family="Arial" font-size="353px" font-weight="400"><tspan class="TextPosition" x="5077" y="22470"><tspan fill="rgb(0,0,0)" stroke="none">6</tspan></tspan></tspan></text>
 <text class="TextShape"><tspan class="TextParagraph" font-family="Arial" font-size="353px" font-weight="400"><tspan class="TextPosition" x="6308" y="22470"><tspan fill="rgb(0,0,0)" stroke="none">8</tspan></tspan></tspan></text>
 <text class="TextShape"><tspan class="TextParagraph" font-family="Arial" font-size="353px" font-weight="400"><tspan class="TextPosition" x="7446" y="22470"><tspan fill="rgb(0,0,0)" stroke="none">10</tspan></tspan></tspan></text>
 <text class="TextShape"><tspan class="TextParagraph" font-family="Arial" font-size="353px" font-weight="400"><tspan class="TextPosition" x="8677" y="22470"><tspan fill="rgb(0,0,0)" stroke="none">12</tspan></tspan></tspan></text>
 <text class="TextShape"><tspan class="TextParagraph" font-family="Arial" font-size="353px" font-weight="400"><tspan class="TextPosition" x="9908" y="22470"><tspan fill="rgb(0,0,0)" stroke="none">14</tspan></tspan></tspan></text>
 <text class="TextShape"><tspan class="TextParagraph" font-family="Arial" font-size="353px" font-weight="400"><tspan class="TextPosition" x="11139" y="22470"><tspan fill="rgb(0,0,0)" stroke="none">16</tspan></tspan></tspan></text>
 <text class="TextShape"><tspan class="TextParagraph" font-family="Arial" font-size="353px" font-weight="400"><tspan class="TextPosition" x="12369" y="22470"><tspan fill="rgb(0,0,0)" stroke="none">18</tspan></tspan></tspan></text>
 <text class="TextShape"><tspan class="TextParagraph" font-family="Arial" font-size="353px" font-weight="400"><tspan class="TextPosition" x="13600" y="22470"><tspan fill="rgb(0,0,0)" stroke="none">20</tspan></tspan></tspan></text>
 <text class="TextShape"><tspan class="TextParagraph" font-family="Arial" font-size="353px" font-weight="400"><tspan class="TextPosition" x="14831" y="22470"><tspan fill="rgb(0,0,0)" stroke="none">22</tspan></tspan></tspan></text>
 <text class="TextShape"><tspan class="TextParagraph" font-family="Arial" font-size="353px" font-weight="400"><tspan class="TextPosition" x="16062" y="22470"><tspan fill="rgb(0,0,0)" stroke="none">24</tspan></tspan></tspan></text>
 <text class="TextShape"><tspan class="TextParagraph" font-family="Arial" font-size="353px" font-weight="400"><tspan class="TextPosition" x="17292" y="22470"><tspan fill="rgb(0,0,0)" stroke="none">26</tspan></tspan></tspan></text>
 <text class="TextShape"><tspan class="TextParagraph" font-family="Arial" font-size="353px" font-weight="400"><tspan class="TextPosition" x="18523" y="22470"><tspan fill="rgb(0,0,0)" stroke="none">28</tspan></tspan></tspan></text>
 <text class="TextShape"><tspan class="TextParagraph" font-family="Arial" font-size="353px" font-weight="400"><tspan class="TextPosition" x="19754" y="22470"><tspan fill="rgb(0,0,0)" stroke="none">30</tspan></tspan></tspan></text>
 <text class="TextShape"><tspan class="TextParagraph" font-family="Arial" font-size="353px" font-weight="400"><tspan class="TextPosition" x="20985" y="22470"><tspan fill="rgb(0,0,0)" stroke="none">32</tspan></tspan></tspan></text>
 <text class="TextShape"><tspan class="TextParagraph" font-family="Arial" font-size="353px" font-weight="400"><tspan class="TextPosition" x="22215" y="22470"><tspan fill="rgb(0,0,0)" stroke="none">34</tspan></tspan></tspan></text>
 <text class="TextShape"><tspan class="TextParagraph" font-family="Arial" font-size="353px" font-weight="400"><tspan class="TextPosition" x="23446" y="22470"><tspan fill="rgb(0,0,0)" stroke="none">36</tspan></tspan></tspan></text>
 <text class="TextShape"><tspan class="TextParagraph" font-family="Arial" font-size="353px" font-weight="400"><tspan class="TextPosition" x="24677" y="22470"><tspan fill="rgb(0,0,0)" stroke="none">38</tspan></tspan></tspan></text>
 <text class="TextShape"><tspan class="TextParagraph" font-family="Arial" font-size="353px" font-weight="400"><tspan class="TextPosition" x="25908" y="22470"><tspan fill="rgb(0,0,0)" stroke="none">40</tspan></tspan></tspan></text>
 <text class="TextShape"><tspan class="TextParagraph" font-family="Arial" font-size="353px" font-weight="400"><tspan class="TextPosition" x="2274" y="22023"><tspan fill="rgb(0,0,0)" stroke="none">0</tspan></tspan></tspan></text>
 <text class="TextShape"><tspan class="TextParagraph" font-family="Arial" font-size="353px" font-weight="400"><tspan class="TextPosition" x="1903" y="20138"><tspan fill="rgb(0,0,0)" stroke="none">200</tspan></tspan></tspan></text>
 <text class="TextShape"><tspan class="TextParagraph" font-family="Arial" font-size="353px" font-weight="400"><tspan class="TextPosition" x="1903" y="18254"><tspan fill="rgb(0,0,0)" stroke="none">400</tspan></tspan></tspan></text>
 <text class="TextShape"><tspan class="TextParagraph" font-family="Arial" font-size="353px" font-weight="400"><tspan class="TextPosition" x="1903" y="16370"><tspan fill="rgb(0,0,0)" stroke="none">600</tspan></tspan></tspan></text>
 <text class="TextShape"><tspan class="TextParagraph" font-family="Arial" font-size="353px" font-weight="400"><tspan class="TextPosition" x="1903" y="14485"><tspan fill="rgb(0,0,0)" stroke="none">800</tspan></tspan></tspan></text>
 <text class="TextShape"><tspan class="TextParagraph" font-family="Arial" font-size="353px" font-weight="400"><tspan class="TextPosition" x="1718" y="12601"><tspan fill="rgb(0,0,0)" stroke="none">1000</tspan></tspan></tspan></text>
 <text class="TextShape"><tspan class="TextParagraph" font-family="Arial" font-size="353px" font-weight="400"><tspan class="TextPosition" x="1718" y="10717"><tspan fill="rgb(0,0,0)" stroke="none">1200</tspan></tspan></tspan></text>
 <text class="TextShape"><tspan class="TextParagraph" font-family="Arial" font-size="353px" font-weight="400"><tspan class="TextPosition" x="1718" y="8832"><tspan fill="rgb(0,0,0)" stroke="none">1400</tspan></tspan></tspan></text>
 <text class="TextShape"><tspan class="TextParagraph" font-family="Arial" font-size="353px" font-weight="400"><tspan class="TextPosition" x="1718" y="6948"><tspan fill="rgb(0,0,0)" stroke="none">1600</tspan></tspan></tspan></text>
 <text class="TextShape"><tspan class="TextParagraph" font-family="Arial" font-size="353px" font-weight="400"><tspan class="TextPosition" x="1718" y="5064"><tspan fill="rgb(0,0,0)" stroke="none">1800</tspan></tspan></tspan></text>
 <text class="TextShape"><tspan class="TextParagraph" font-family="Arial" font-size="353px" font-weight="400"><tspan class="TextPosition" x="1718" y="3179"><tspan fill="rgb(0,0,0)" stroke="none">2000</tspan></tspan></tspan></text>
 <text class="TextShape"><tspan class="TextParagraph" font-family="Arial" font-size="459px" font-weight="400"><tspan class="TextPosition" x="13390" y="1177"><tspan fill="rgb(0,0,0)" stroke="none">Variatin of entropy with #of phases </tspan></tspan></tspan></text>
 <path fill="none" stroke="rgb(0,69,134)" stroke-width="80" stroke-linejoin="round" d="M 27739,10262 L 28539,10262"/>
 <path fill="none" stroke="rgb(255,66,14)" stroke-width="80" stroke-linejoin="round" d="M 27739,10760 L 28539,10760"/>
 <path fill="none" stroke="rgb(255,211,32)" stroke-width="80" stroke-linejoin="round" d="M 27739,11258 L 28539,11258"/>
 <path fill="none" stroke="rgb(87,157,28)" stroke-width="80" stroke-linejoin="round" d="M 27739,11756 L 28539,11756"/>
 <path fill="none" stroke="rgb(126,0,33)" stroke-width="80" stroke-linejoin="round" d="M 27739,12253 L 28539,12253"/>
 <path fill="none" stroke="rgb(131,202,255)" stroke-width="80" stroke-linejoin="round" d="M 27739,12751 L 28539,12751"/>
 <path fill="none" stroke="rgb(49,64,4)" stroke-width="80" stroke-linejoin="round" d="M 27739,13249 L 28539,13249"/>
 <path fill="none" stroke="rgb(174,207,0)" stroke-width="80" stroke-linejoin="round" d="M 27739,13747 L 28539,13747"/>
 <text class="TextShape"><tspan class="TextParagraph" font-family="Arial" font-size="353px" font-weight="400"><tspan class="TextPosition" x="28639" y="10382"><tspan fill="rgb(0,0,0)" stroke="none">Initial_Value</tspan></tspan></tspan></text>
 <text class="TextShape"><tspan class="TextParagraph" font-family="Arial" font-size="353px" font-weight="400"><tspan class="TextPosition" x="28639" y="10880"><tspan fill="rgb(0,0,0)" stroke="none">Random_Value</tspan></tspan></tspan></text>
 <text class="TextShape"><tspan class="TextParagraph" font-family="Arial" font-size="353px" font-weight="400"><tspan class="TextPosition" x="28639" y="11378"><tspan fill="rgb(0,0,0)" stroke="none">Left_Left_Value</tspan></tspan></tspan></text>
 <text class="TextShape"><tspan class="TextParagraph" font-family="Arial" font-size="353px" font-weight="400"><tspan class="TextPosition" x="28639" y="11876"><tspan fill="rgb(0,0,0)" stroke="none">Left_Right_Value</tspan></tspan></tspan></text>
 <text class="TextShape"><tspan class="TextParagraph" font-family="Arial" font-size="353px" font-weight="400"><tspan class="TextPosition" x="28639" y="12373"><tspan fill="rgb(0,0,0)" stroke="none">Center_Center_Value</tspan></tspan></tspan></text>
 <text class="TextShape"><tspan class="TextParagraph" font-family="Arial" font-size="353px" font-weight="400"><tspan class="TextPosition" x="28639" y="12871"><tspan fill="rgb(0,0,0)" stroke="none">Left_Left_Random_Value</tspan></tspan></tspan></text>
 <text class="TextShape"><tspan class="TextParagraph" font-family="Arial" font-size="353px" font-weight="400"><tspan class="TextPosition" x="28639" y="13369"><tspan fill="rgb(0,0,0)" stroke="none">Left_Right_Random_Value</tspan></tspan></tspan></text>
 <text class="TextShape"><tspan class="TextParagraph" font-family="Arial" font-size="353px" font-weight="400"><tspan class="TextPosition" x="28639" y="13867"><tspan fill="rgb(0,0,0)" stroke="none">Center_Center_Random_Value</tspan></tspan></tspan></text>
 <text class="TextShape"><tspan class="TextParagraph" font-family="Arial" font-size="318px" font-weight="400"><tspan class="TextPosition" x="13455" y="23417"><tspan fill="rgb(0,0,0)" stroke="none">Phases</tspan></tspan></tspan></text>
 <text class="TextShape"><tspan class="TextParagraph" font-family="Arial" font-size="318px" font-weight="400"><tspan class="TextPosition" x="871" y="13261" transform="translate(871,13261) rotate(-89.9) translate(-871,-13261)"><tspan fill="rgb(0,0,0)" stroke="none">Entropy</tspan></tspan></tspan></text>
</svg>