<?xml version="1.0" encoding="UTF-8"?>
<!DOCTYPE svg PUBLIC "-//W3C//DTD SVG 1.1//EN" "http://www.w3.org/Graphics/SVG/1.1/DTD/svg11.dtd">
<svg width="294mm" height="180mm" viewBox="0 0 29400 18000">
 <path fill="rgb(255,255,255)" stroke="none" d="M 14727,18035 L 34,18035 34,0 29419,0 29419,18035 14727,18035 Z"/>
 <path fill="none" stroke="rgb(179,179,179)" stroke-linejoin="round" d="M 12222,16047 L 2439,16047 2439,2581 22004,2581 22004,16047 12222,16047 Z"/>
 <path fill="none" stroke="rgb(179,179,179)" stroke-linejoin="round" d="M 22004,16046 L 2439,16046"/>
 <path fill="none" stroke="rgb(179,179,179)" stroke-linejoin="round" d="M 22004,14122 L 2439,14122"/>
 <path fill="none" stroke="rgb(179,179,179)" stroke-linejoin="round" d="M 22004,12198 L 2439,12198"/>
 <path fill="none" stroke="rgb(179,179,179)" stroke-linejoin="round" d="M 22004,10274 L 2439,10274"/>
 <path fill="none" stroke="rgb(179,179,179)" stroke-linejoin="round" d="M 22004,8351 L 2439,8351"/>
 <path fill="none" stroke="rgb(179,179,179)" stroke-linejoin="round" d="M 22004,6427 L 2439,6427"/>
 <path fill="none" stroke="rgb(179,179,179)" stroke-linejoin="round" d="M 22004,4503 L 2439,4503"/>
 <path fill="none" stroke="rgb(179,179,179)" stroke-linejoin="round" d="M 22004,2579 L 2439,2579"/>
 <path fill="none" stroke="rgb(179,179,179)" stroke-linejoin="round" d="M 2439,16196 L 2439,16046"/>
 <path fill="none" stroke="rgb(179,179,179)" stroke-linejoin="round" d="M 2439,16196 L 2439,16046"/>
 <path fill="none" stroke="rgb(179,179,179)" stroke-linejoin="round" d="M 3589,16196 L 3589,16046"/>
 <path fill="none" stroke="rgb(179,179,179)" stroke-linejoin="round" d="M 3589,16196 L 3589,16046"/>
 <path fill="none" stroke="rgb(179,179,179)" stroke-linejoin="round" d="M 4740,16196 L 4740,16046"/>
 <path fill="none" stroke="rgb(179,179,179)" stroke-linejoin="round" d="M 4740,16196 L 4740,16046"/>
 <path fill="none" stroke="rgb(179,179,179)" stroke-linejoin="round" d="M 5891,16196 L 5891,16046"/>
 <path fill="none" stroke="rgb(179,179,179)" stroke-linejoin="round" d="M 5891,16196 L 5891,16046"/>
 <path fill="none" stroke="rgb(179,179,179)" stroke-linejoin="round" d="M 7042,16196 L 7042,16046"/>
 <path fill="none" stroke="rgb(179,179,179)" stroke-linejoin="round" d="M 7042,16196 L 7042,16046"/>
 <path fill="none" stroke="rgb(179,179,179)" stroke-linejoin="round" d="M 8193,16196 L 8193,16046"/>
 <path fill="none" stroke="rgb(179,179,179)" stroke-linejoin="round" d="M 8193,16196 L 8193,16046"/>
 <path fill="none" stroke="rgb(179,179,179)" stroke-linejoin="round" d="M 9344,16196 L 9344,16046"/>
 <path fill="none" stroke="rgb(179,179,179)" stroke-linejoin="round" d="M 9344,16196 L 9344,16046"/>
 <path fill="none" stroke="rgb(179,179,179)" stroke-linejoin="round" d="M 10495,16196 L 10495,16046"/>
 <path fill="none" stroke="rgb(179,179,179)" stroke-linejoin="round" d="M 10495,16196 L 10495,16046"/>
 <path fill="none" stroke="rgb(179,179,179)" stroke-linejoin="round" d="M 11646,16196 L 11646,16046"/>
 <path fill="none" stroke="rgb(179,179,179)" stroke-linejoin="round" d="M 11646,16196 L 11646,16046"/>
 <path fill="none" stroke="rgb(179,179,179)" stroke-linejoin="round" d="M 12797,16196 L 12797,16046"/>
 <path fill="none" stroke="rgb(179,179,179)" stroke-linejoin="round" d="M 12797,16196 L 12797,16046"/>
 <path fill="none" stroke="rgb(179,179,179)" stroke-linejoin="round" d="M 13948,16196 L 13948,16046"/>
 <path fill="none" stroke="rgb(179,179,179)" stroke-linejoin="round" d="M 13948,16196 L 13948,16046"/>
 <path fill="none" stroke="rgb(179,179,179)" stroke-linejoin="round" d="M 15098,16196 L 15098,16046"/>
 <path fill="none" stroke="rgb(179,179,179)" stroke-linejoin="round" d="M 15098,16196 L 15098,16046"/>
 <path fill="none" stroke="rgb(179,179,179)" stroke-linejoin="round" d="M 16249,16196 L 16249,16046"/>
 <path fill="none" stroke="rgb(179,179,179)" stroke-linejoin="round" d="M 16249,16196 L 16249,16046"/>
 <path fill="none" stroke="rgb(179,179,179)" stroke-linejoin="round" d="M 17400,16196 L 17400,16046"/>
 <path fill="none" stroke="rgb(179,179,179)" stroke-linejoin="round" d="M 17400,16196 L 17400,16046"/>
 <path fill="none" stroke="rgb(179,179,179)" stroke-linejoin="round" d="M 18551,16196 L 18551,16046"/>
 <path fill="none" stroke="rgb(179,179,179)" stroke-linejoin="round" d="M 18551,16196 L 18551,16046"/>
 <path fill="none" stroke="rgb(179,179,179)" stroke-linejoin="round" d="M 19702,16196 L 19702,16046"/>
 <path fill="none" stroke="rgb(179,179,179)" stroke-linejoin="round" d="M 19702,16196 L 19702,16046"/>
 <path fill="none" stroke="rgb(179,179,179)" stroke-linejoin="round" d="M 20853,16196 L 20853,16046"/>
 <path fill="none" stroke="rgb(179,179,179)" stroke-linejoin="round" d="M 20853,16196 L 20853,16046"/>
 <path fill="none" stroke="rgb(179,179,179)" stroke-linejoin="round" d="M 22004,16196 L 22004,16046"/>
 <path fill="none" stroke="rgb(179,179,179)" stroke-linejoin="round" d="M 22004,16196 L 22004,16046"/>
 <path fill="none" stroke="rgb(179,179,179)" stroke-linejoin="round" d="M 2439,16046 L 22004,16046"/>
 <path fill="none" stroke="rgb(179,179,179)" stroke-linejoin="round" d="M 2289,16046 L 2439,16046"/>
 <path fill="none" stroke="rgb(179,179,179)" stroke-linejoin="round" d="M 2289,16046 L 2439,16046"/>
 <path fill="none" stroke="rgb(179,179,179)" stroke-linejoin="round" d="M 2289,14122 L 2439,14122"/>
 <path fill="none" stroke="rgb(179,179,179)" stroke-linejoin="round" d="M 2289,14122 L 2439,14122"/>
 <path fill="none" stroke="rgb(179,179,179)" stroke-linejoin="round" d="M 2289,12198 L 2439,12198"/>
 <path fill="none" stroke="rgb(179,179,179)" stroke-linejoin="round" d="M 2289,12198 L 2439,12198"/>
 <path fill="none" stroke="rgb(179,179,179)" stroke-linejoin="round" d="M 2289,10274 L 2439,10274"/>
 <path fill="none" stroke="rgb(179,179,179)" stroke-linejoin="round" d="M 2289,10274 L 2439,10274"/>
 <path fill="none" stroke="rgb(179,179,179)" stroke-linejoin="round" d="M 2289,8351 L 2439,8351"/>
 <path fill="none" stroke="rgb(179,179,179)" stroke-linejoin="round" d="M 2289,8351 L 2439,8351"/>
 <path fill="none" stroke="rgb(179,179,179)" stroke-linejoin="round" d="M 2289,6427 L 2439,6427"/>
 <path fill="none" stroke="rgb(179,179,179)" stroke-linejoin="round" d="M 2289,6427 L 2439,6427"/>
 <path fill="none" stroke="rgb(179,179,179)" stroke-linejoin="round" d="M 2289,4503 L 2439,4503"/>
 <path fill="none" stroke="rgb(179,179,179)" stroke-linejoin="round" d="M 2289,4503 L 2439,4503"/>
 <path fill="none" stroke="rgb(179,179,179)" stroke-linejoin="round" d="M 2289,2579 L 2439,2579"/>
 <path fill="none" stroke="rgb(179,179,179)" stroke-linejoin="round" d="M 2289,2579 L 2439,2579"/>
 <path fill="none" stroke="rgb(179,179,179)" stroke-linejoin="round" d="M 2439,16046 L 2439,2579"/>
 <path fill="none" stroke="rgb(0,69,134)" stroke-width="80" stroke-linejoin="round" d="M 2439,13891 L 3589,12467 4740,11120 5891,10043 7042,9466 8193,8967 9344,8274 10495,7620 11646,7428 12797,6812 13948,6466 15098,6389 16249,6196 17400,6081 18551,5542 19702,5427 20853,4850 22004,5773"/>
 <path fill="none" stroke="rgb(255,66,14)" stroke-width="80" stroke-linejoin="round" d="M 2439,13891 L 3589,12583 4740,11813 5891,10505 7042,9966 8193,9620 9344,9350 10495,8659 11646,9235 12797,8274 13948,7966 15098,8005 16249,8197 17400,7812 18551,7697 19702,7543 20853,7543 22004,7543"/>
 <path fill="none" stroke="rgb(255,211,32)" stroke-width="80" stroke-linejoin="round" d="M 2439,13737 L 3589,12121 4740,10890 5891,9350 7042,9120 8193,8505 9344,8236 10495,8005 11646,8467 12797,7966 13948,7505 15098,7505 16249,7735 17400,7235 18551,7543 19702,7658 20853,7428 22004,7312"/>
 <path fill="none" stroke="rgb(87,157,28)" stroke-width="80" stroke-linejoin="round" d="M 2439,13891 L 3589,12121 4740,11120 5891,9812 7042,9312 8193,8620 9344,8274 10495,8159 11646,8582 12797,8005 13948,7466 15098,7658 16249,7158 17400,7312 18551,7274 19702,7658 20853,7351 22004,7274"/>
 <path fill="none" stroke="rgb(126,0,33)" stroke-width="80" stroke-linejoin="round" d="M 2439,13660 L 3589,11851 4740,10774 5891,9158 7042,9081 8193,8390 9344,7966 10495,7620 11646,8043 12797,7466 13948,7235 15098,7735 16249,7197 17400,7004 18551,7312 19702,7428 20853,7120 22004,7120"/>
 <path fill="none" stroke="rgb(131,202,255)" stroke-width="80" stroke-linejoin="round" d="M 2439,13891 L 3589,12660 4740,11467 5891,10312 7042,9966 8193,9427 9344,9043 10495,8697 11646,9120 12797,8082 13948,7928 15098,8159 16249,8120 17400,7812 18551,7966 19702,7774 20853,7658 22004,7658"/>
 <path fill="none" stroke="rgb(49,64,4)" stroke-width="80" stroke-linejoin="round" d="M 2439,13891 L 3589,12660 4740,11467 5891,10312 7042,9966 8193,9427 9344,9043 10495,8697 11646,9120 12797,8082 13948,7928 15098,8159 16249,8120 17400,7812 18551,7966 19702,7774 20853,7658 22004,7658"/>
 <path fill="none" stroke="rgb(174,207,0)" stroke-width="80" stroke-linejoin="round" d="M 2439,13891 L 3589,12660 4740,11467 5891,10312 7042,9966 8193,9427 9344,9043 10495,8697 11646,9120 12797,8082 13948,7928 15098,8159 16249,8120 17400,7812 18551,7966 19702,7774 20853,7658 22004,7658"/>
 <text class="TextShape"><tspan class="TextParagraph" font-family="Arial" font-size="353px" font-weight="400"><tspan class="TextPosition" x="2346" y="16614"><tspan fill="rgb(0,0,0)" stroke="none">2</tspan></tspan></tspan></text>
 <text class="TextShape"><tspan class="TextParagraph" font-family="Arial" font-size="353px" font-weight="400"><tspan class="TextPosition" x="3496" y="16614"><tspan fill="rgb(0,0,0)" stroke="none">3</tspan></tspan></tspan></text>
 <text class="TextShape"><tspan class="TextParagraph" font-family="Arial" font-size="353px" font-weight="400"><tspan class="TextPosition" x="4647" y="16614"><tspan fill="rgb(0,0,0)" stroke="none">4</tspan></tspan></tspan></text>
 <text class="TextShape"><tspan class="TextParagraph" font-family="Arial" font-size="353px" font-weight="400"><tspan class="TextPosition" x="5798" y="16614"><tspan fill="rgb(0,0,0)" stroke="none">5</tspan></tspan></tspan></text>
 <text class="TextShape"><tspan class="TextParagraph" font-family="Arial" font-size="353px" font-weight="400"><tspan class="TextPosition" x="6949" y="16614"><tspan fill="rgb(0,0,0)" stroke="none">6</tspan></tspan></tspan></text>
 <text class="TextShape"><tspan class="TextParagraph" font-family="Arial" font-size="353px" font-weight="400"><tspan class="TextPosition" x="8100" y="16614"><tspan fill="rgb(0,0,0)" stroke="none">7</tspan></tspan></tspan></text>
 <text class="TextShape"><tspan class="TextParagraph" font-family="Arial" font-size="353px" font-weight="400"><tspan class="TextPosition" x="9251" y="16614"><tspan fill="rgb(0,0,0)" stroke="none">8</tspan></tspan></tspan></text>
 <text class="TextShape"><tspan class="TextParagraph" font-family="Arial" font-size="353px" font-weight="400"><tspan class="TextPosition" x="10402" y="16614"><tspan fill="rgb(0,0,0)" stroke="none">9</tspan></tspan></tspan></text>
 <text class="TextShape"><tspan class="TextParagraph" font-family="Arial" font-size="353px" font-weight="400"><tspan class="TextPosition" x="11461" y="16614"><tspan fill="rgb(0,0,0)" stroke="none">10</tspan></tspan></tspan></text>
 <text class="TextShape"><tspan class="TextParagraph" font-family="Arial" font-size="353px" font-weight="400"><tspan class="TextPosition" x="12612" y="16614"><tspan fill="rgb(0,0,0)" stroke="none">11</tspan></tspan></tspan></text>
 <text class="TextShape"><tspan class="TextParagraph" font-family="Arial" font-size="353px" font-weight="400"><tspan class="TextPosition" x="13763" y="16614"><tspan fill="rgb(0,0,0)" stroke="none">12</tspan></tspan></tspan></text>
 <text class="TextShape"><tspan class="TextParagraph" font-family="Arial" font-size="353px" font-weight="400"><tspan class="TextPosition" x="14914" y="16614"><tspan fill="rgb(0,0,0)" stroke="none">13</tspan></tspan></tspan></text>
 <text class="TextShape"><tspan class="TextParagraph" font-family="Arial" font-size="353px" font-weight="400"><tspan class="TextPosition" x="16065" y="16614"><tspan fill="rgb(0,0,0)" stroke="none">14</tspan></tspan></tspan></text>
 <text class="TextShape"><tspan class="TextParagraph" font-family="Arial" font-size="353px" font-weight="400"><tspan class="TextPosition" x="17216" y="16614"><tspan fill="rgb(0,0,0)" stroke="none">15</tspan></tspan></tspan></text>
 <text class="TextShape"><tspan class="TextParagraph" font-family="Arial" font-size="353px" font-weight="400"><tspan class="TextPosition" x="18367" y="16614"><tspan fill="rgb(0,0,0)" stroke="none">16</tspan></tspan></tspan></text>
 <text class="TextShape"><tspan class="TextParagraph" font-family="Arial" font-size="353px" font-weight="400"><tspan class="TextPosition" x="19518" y="16614"><tspan fill="rgb(0,0,0)" stroke="none">17</tspan></tspan></tspan></text>
 <text class="TextShape"><tspan class="TextParagraph" font-family="Arial" font-size="353px" font-weight="400"><tspan class="TextPosition" x="20669" y="16614"><tspan fill="rgb(0,0,0)" stroke="none">18</tspan></tspan></tspan></text>
 <text class="TextShape"><tspan class="TextParagraph" font-family="Arial" font-size="353px" font-weight="400"><tspan class="TextPosition" x="21820" y="16614"><tspan fill="rgb(0,0,0)" stroke="none">19</tspan></tspan></tspan></text>
 <text class="TextShape"><tspan class="TextParagraph" font-family="Arial" font-size="353px" font-weight="400"><tspan class="TextPosition" x="2004" y="16167"><tspan fill="rgb(0,0,0)" stroke="none">0</tspan></tspan></tspan></text>
 <text class="TextShape"><tspan class="TextParagraph" font-family="Arial" font-size="353px" font-weight="400"><tspan class="TextPosition" x="1633" y="14243"><tspan fill="rgb(0,0,0)" stroke="none">100</tspan></tspan></tspan></text>
 <text class="TextShape"><tspan class="TextParagraph" font-family="Arial" font-size="353px" font-weight="400"><tspan class="TextPosition" x="1633" y="12319"><tspan fill="rgb(0,0,0)" stroke="none">200</tspan></tspan></tspan></text>
 <text class="TextShape"><tspan class="TextParagraph" font-family="Arial" font-size="353px" font-weight="400"><tspan class="TextPosition" x="1633" y="10395"><tspan fill="rgb(0,0,0)" stroke="none">300</tspan></tspan></tspan></text>
 <text class="TextShape"><tspan class="TextParagraph" font-family="Arial" font-size="353px" font-weight="400"><tspan class="TextPosition" x="1633" y="8471"><tspan fill="rgb(0,0,0)" stroke="none">400</tspan></tspan></tspan></text>
 <text class="TextShape"><tspan class="TextParagraph" font-family="Arial" font-size="353px" font-weight="400"><tspan class="TextPosition" x="1633" y="6547"><tspan fill="rgb(0,0,0)" stroke="none">500</tspan></tspan></tspan></text>
 <text class="TextShape"><tspan class="TextParagraph" font-family="Arial" font-size="353px" font-weight="400"><tspan class="TextPosition" x="1633" y="4623"><tspan fill="rgb(0,0,0)" stroke="none">600</tspan></tspan></tspan></text>
 <text class="TextShape"><tspan class="TextParagraph" font-family="Arial" font-size="353px" font-weight="400"><tspan class="TextPosition" x="1633" y="2699"><tspan fill="rgb(0,0,0)" stroke="none">700</tspan></tspan></tspan></text>
 <text class="TextShape"><tspan class="TextParagraph" font-family="Arial" font-size="459px" font-weight="400"><tspan class="TextPosition" x="11128" y="1057"><tspan fill="rgb(0,0,0)" stroke="none">Variation of entropy with #of process</tspan></tspan></tspan></text>
 <path fill="none" stroke="rgb(0,69,134)" stroke-width="80" stroke-linejoin="round" d="M 23480,7274 L 24280,7274"/>
 <path fill="none" stroke="rgb(255,66,14)" stroke-width="80" stroke-linejoin="round" d="M 23480,7772 L 24280,7772"/>
 <path fill="none" stroke="rgb(255,211,32)" stroke-width="80" stroke-linejoin="round" d="M 23480,8270 L 24280,8270"/>
 <path fill="none" stroke="rgb(87,157,28)" stroke-width="80" stroke-linejoin="round" d="M 23480,8768 L 24280,8768"/>
 <path fill="none" stroke="rgb(126,0,33)" stroke-width="80" stroke-linejoin="round" d="M 23480,9265 L 24280,9265"/>
 <path fill="none" stroke="rgb(131,202,255)" stroke-width="80" stroke-linejoin="round" d="M 23480,9763 L 24280,9763"/>
 <path fill="none" stroke="rgb(49,64,4)" stroke-width="80" stroke-linejoin="round" d="M 23480,10261 L 24280,10261"/>
 <path fill="none" stroke="rgb(174,207,0)" stroke-width="80" stroke-linejoin="round" d="M 23480,10759 L 24280,10759"/>
 <text class="TextShape"><tspan class="TextParagraph" font-family="Arial" font-size="353px" font-weight="400"><tspan class="TextPosition" x="24380" y="7394"><tspan fill="rgb(0,0,0)" stroke="none">Initial_Value</tspan></tspan></tspan></text>
 <text class="TextShape"><tspan class="TextParagraph" font-family="Arial" font-size="353px" font-weight="400"><tspan class="TextPosition" x="24380" y="7892"><tspan fill="rgb(0,0,0)" stroke="none">Random_Value</tspan></tspan></tspan></text>
 <text class="TextShape"><tspan class="TextParagraph" font-family="Arial" font-size="353px" font-weight="400"><tspan class="TextPosition" x="24380" y="8390"><tspan fill="rgb(0,0,0)" stroke="none">Left_Left_Value</tspan></tspan></tspan></text>
 <text class="TextShape"><tspan class="TextParagraph" font-family="Arial" font-size="353px" font-weight="400"><tspan class="TextPosition" x="24380" y="8888"><tspan fill="rgb(0,0,0)" stroke="none">Left_Right_Value</tspan></tspan></tspan></text>
 <text class="TextShape"><tspan class="TextParagraph" font-family="Arial" font-size="353px" font-weight="400"><tspan class="TextPosition" x="24380" y="9385"><tspan fill="rgb(0,0,0)" stroke="none">Center_Center_Value</tspan></tspan></tspan></text>
 <text class="TextShape"><tspan class="TextParagraph" font-family="Arial" font-size="353px" font-weight="400"><tspan class="TextPosition" x="24380" y="9883"><tspan fill="rgb(0,0,0)" stroke="none">Left_Left_Random_Value</tspan></tspan></tspan></text>
 <text class="TextShape"><tspan class="TextParagraph" font-family="Arial" font-size="353px" font-weight="400"><tspan class="TextPosition" x="24380" y="10381"><tspan fill="rgb(0,0,0)" stroke="none">Left_Right_Random_Value</tspan></tspan></tspan></text>
 <text class="TextShape"><tspan class="TextParagraph" font-family="Arial" font-size="353px" font-weight="400"><tspan class="TextPosition" x="24380" y="10879"><tspan fill="rgb(0,0,0)" stroke="none">Center_Center_Random_Value</tspan></tspan></tspan></text>
 <text class="TextShape"><tspan class="TextParagraph" font-family="Arial" font-size="318px" font-weight="400"><tspan class="TextPosition" x="11330" y="17441"><tspan fill="rgb(0,0,0)" stroke="none">Process</tspan></tspan></tspan></text>
 <text class="TextShape"><tspan class="TextParagraph" font-family="Arial" font-size="318px" font-weight="400"><tspan class="TextPosition" x="871" y="10093" transform="translate(871,10093) rotate(-89.9) translate(-871,-10093)"><tspan fill="rgb(0,0,0)" stroke="none">Entropy</tspan></tspan></tspan></text>
</svg>