<?xml version="1.0" encoding="UTF-8"?>
<!DOCTYPE svg PUBLIC "-//W3C//DTD SVG 1.1//EN" "http://www.w3.org/Graphics/SVG/1.1/DTD/svg11.dtd">
<svg width="459mm" height="319mm" viewBox="0 0 45900 31900">
 <path fill="rgb(255,255,255)" stroke="none" d="M 22947,31930 L 14,31930 14,0 45880,0 45880,31930 22947,31930 Z"/>
 <path fill="none" stroke="rgb(179,179,179)" stroke-linejoin="round" d="M 20786,31105 L 3400,31105 3400,5220 38172,5220 38172,31105 20786,31105 Z"/>
 <path fill="none" stroke="rgb(179,179,179)" stroke-linejoin="round" d="M 38172,31104 L 3400,31104"/>
 <path fill="none" stroke="rgb(179,179,179)" stroke-linejoin="round" d="M 38172,28515 L 3400,28515"/>
 <path fill="none" stroke="rgb(179,179,179)" stroke-linejoin="round" d="M 38172,25926 L 3400,25926"/>
 <path fill="none" stroke="rgb(179,179,179)" stroke-linejoin="round" d="M 38172,23338 L 3400,23338"/>
 <path fill="none" stroke="rgb(179,179,179)" stroke-linejoin="round" d="M 38172,20749 L 3400,20749"/>
 <path fill="none" stroke="rgb(179,179,179)" stroke-linejoin="round" d="M 38172,18161 L 3400,18161"/>
 <path fill="none" stroke="rgb(179,179,179)" stroke-linejoin="round" d="M 38172,15573 L 3400,15573"/>
 <path fill="none" stroke="rgb(179,179,179)" stroke-linejoin="round" d="M 38172,12984 L 3400,12984"/>
 <path fill="none" stroke="rgb(179,179,179)" stroke-linejoin="round" d="M 38172,10396 L 3400,10396"/>
 <path fill="none" stroke="rgb(179,179,179)" stroke-linejoin="round" d="M 38172,7807 L 3400,7807"/>
 <path fill="none" stroke="rgb(179,179,179)" stroke-linejoin="round" d="M 38172,5219 L 3400,5219"/>
 <path fill="none" stroke="rgb(179,179,179)" stroke-linejoin="round" d="M 3400,31254 L 3400,31104"/>
 <path fill="none" stroke="rgb(179,179,179)" stroke-linejoin="round" d="M 3400,31254 L 3400,31104"/>
 <path fill="none" stroke="rgb(179,179,179)" stroke-linejoin="round" d="M 5230,31254 L 5230,31104"/>
 <path fill="none" stroke="rgb(179,179,179)" stroke-linejoin="round" d="M 5230,31254 L 5230,31104"/>
 <path fill="none" stroke="rgb(179,179,179)" stroke-linejoin="round" d="M 7060,31254 L 7060,31104"/>
 <path fill="none" stroke="rgb(179,179,179)" stroke-linejoin="round" d="M 7060,31254 L 7060,31104"/>
 <path fill="none" stroke="rgb(179,179,179)" stroke-linejoin="round" d="M 8890,31254 L 8890,31104"/>
 <path fill="none" stroke="rgb(179,179,179)" stroke-linejoin="round" d="M 8890,31254 L 8890,31104"/>
 <path fill="none" stroke="rgb(179,179,179)" stroke-linejoin="round" d="M 10720,31254 L 10720,31104"/>
 <path fill="none" stroke="rgb(179,179,179)" stroke-linejoin="round" d="M 10720,31254 L 10720,31104"/>
 <path fill="none" stroke="rgb(179,179,179)" stroke-linejoin="round" d="M 12550,31254 L 12550,31104"/>
 <path fill="none" stroke="rgb(179,179,179)" stroke-linejoin="round" d="M 12550,31254 L 12550,31104"/>
 <path fill="none" stroke="rgb(179,179,179)" stroke-linejoin="round" d="M 14380,31254 L 14380,31104"/>
 <path fill="none" stroke="rgb(179,179,179)" stroke-linejoin="round" d="M 14380,31254 L 14380,31104"/>
 <path fill="none" stroke="rgb(179,179,179)" stroke-linejoin="round" d="M 16211,31254 L 16211,31104"/>
 <path fill="none" stroke="rgb(179,179,179)" stroke-linejoin="round" d="M 16211,31254 L 16211,31104"/>
 <path fill="none" stroke="rgb(179,179,179)" stroke-linejoin="round" d="M 18041,31254 L 18041,31104"/>
 <path fill="none" stroke="rgb(179,179,179)" stroke-linejoin="round" d="M 18041,31254 L 18041,31104"/>
 <path fill="none" stroke="rgb(179,179,179)" stroke-linejoin="round" d="M 19871,31254 L 19871,31104"/>
 <path fill="none" stroke="rgb(179,179,179)" stroke-linejoin="round" d="M 19871,31254 L 19871,31104"/>
 <path fill="none" stroke="rgb(179,179,179)" stroke-linejoin="round" d="M 21701,31254 L 21701,31104"/>
 <path fill="none" stroke="rgb(179,179,179)" stroke-linejoin="round" d="M 21701,31254 L 21701,31104"/>
 <path fill="none" stroke="rgb(179,179,179)" stroke-linejoin="round" d="M 23530,31254 L 23530,31104"/>
 <path fill="none" stroke="rgb(179,179,179)" stroke-linejoin="round" d="M 23530,31254 L 23530,31104"/>
 <path fill="none" stroke="rgb(179,179,179)" stroke-linejoin="round" d="M 25360,31254 L 25360,31104"/>
 <path fill="none" stroke="rgb(179,179,179)" stroke-linejoin="round" d="M 25360,31254 L 25360,31104"/>
 <path fill="none" stroke="rgb(179,179,179)" stroke-linejoin="round" d="M 27191,31254 L 27191,31104"/>
 <path fill="none" stroke="rgb(179,179,179)" stroke-linejoin="round" d="M 27191,31254 L 27191,31104"/>
 <path fill="none" stroke="rgb(179,179,179)" stroke-linejoin="round" d="M 29021,31254 L 29021,31104"/>
 <path fill="none" stroke="rgb(179,179,179)" stroke-linejoin="round" d="M 29021,31254 L 29021,31104"/>
 <path fill="none" stroke="rgb(179,179,179)" stroke-linejoin="round" d="M 30851,31254 L 30851,31104"/>
 <path fill="none" stroke="rgb(179,179,179)" stroke-linejoin="round" d="M 30851,31254 L 30851,31104"/>
 <path fill="none" stroke="rgb(179,179,179)" stroke-linejoin="round" d="M 32681,31254 L 32681,31104"/>
 <path fill="none" stroke="rgb(179,179,179)" stroke-linejoin="round" d="M 32681,31254 L 32681,31104"/>
 <path fill="none" stroke="rgb(179,179,179)" stroke-linejoin="round" d="M 34511,31254 L 34511,31104"/>
 <path fill="none" stroke="rgb(179,179,179)" stroke-linejoin="round" d="M 34511,31254 L 34511,31104"/>
 <path fill="none" stroke="rgb(179,179,179)" stroke-linejoin="round" d="M 36341,31254 L 36341,31104"/>
 <path fill="none" stroke="rgb(179,179,179)" stroke-linejoin="round" d="M 36341,31254 L 36341,31104"/>
 <path fill="none" stroke="rgb(179,179,179)" stroke-linejoin="round" d="M 38172,31254 L 38172,31104"/>
 <path fill="none" stroke="rgb(179,179,179)" stroke-linejoin="round" d="M 38172,31254 L 38172,31104"/>
 <path fill="none" stroke="rgb(179,179,179)" stroke-linejoin="round" d="M 3400,31104 L 38172,31104"/>
 <path fill="none" stroke="rgb(179,179,179)" stroke-linejoin="round" d="M 3250,31104 L 3400,31104"/>
 <path fill="none" stroke="rgb(179,179,179)" stroke-linejoin="round" d="M 3250,31104 L 3400,31104"/>
 <path fill="none" stroke="rgb(179,179,179)" stroke-linejoin="round" d="M 3250,28515 L 3400,28515"/>
 <path fill="none" stroke="rgb(179,179,179)" stroke-linejoin="round" d="M 3250,28515 L 3400,28515"/>
 <path fill="none" stroke="rgb(179,179,179)" stroke-linejoin="round" d="M 3250,25926 L 3400,25926"/>
 <path fill="none" stroke="rgb(179,179,179)" stroke-linejoin="round" d="M 3250,25926 L 3400,25926"/>
 <path fill="none" stroke="rgb(179,179,179)" stroke-linejoin="round" d="M 3250,23338 L 3400,23338"/>
 <path fill="none" stroke="rgb(179,179,179)" stroke-linejoin="round" d="M 3250,23338 L 3400,23338"/>
 <path fill="none" stroke="rgb(179,179,179)" stroke-linejoin="round" d="M 3250,20749 L 3400,20749"/>
 <path fill="none" stroke="rgb(179,179,179)" stroke-linejoin="round" d="M 3250,20749 L 3400,20749"/>
 <path fill="none" stroke="rgb(179,179,179)" stroke-linejoin="round" d="M 3250,18161 L 3400,18161"/>
 <path fill="none" stroke="rgb(179,179,179)" stroke-linejoin="round" d="M 3250,18161 L 3400,18161"/>
 <path fill="none" stroke="rgb(179,179,179)" stroke-linejoin="round" d="M 3250,15573 L 3400,15573"/>
 <path fill="none" stroke="rgb(179,179,179)" stroke-linejoin="round" d="M 3250,15573 L 3400,15573"/>
 <path fill="none" stroke="rgb(179,179,179)" stroke-linejoin="round" d="M 3250,12984 L 3400,12984"/>
 <path fill="none" stroke="rgb(179,179,179)" stroke-linejoin="round" d="M 3250,12984 L 3400,12984"/>
 <path fill="none" stroke="rgb(179,179,179)" stroke-linejoin="round" d="M 3250,10396 L 3400,10396"/>
 <path fill="none" stroke="rgb(179,179,179)" stroke-linejoin="round" d="M 3250,10396 L 3400,10396"/>
 <path fill="none" stroke="rgb(179,179,179)" stroke-linejoin="round" d="M 3250,7807 L 3400,7807"/>
 <path fill="none" stroke="rgb(179,179,179)" stroke-linejoin="round" d="M 3250,7807 L 3400,7807"/>
 <path fill="none" stroke="rgb(179,179,179)" stroke-linejoin="round" d="M 3250,5219 L 3400,5219"/>
 <path fill="none" stroke="rgb(179,179,179)" stroke-linejoin="round" d="M 3250,5219 L 3400,5219"/>
 <path fill="none" stroke="rgb(179,179,179)" stroke-linejoin="round" d="M 3400,31104 L 3400,5219"/>
 <path fill="none" stroke="rgb(0,69,134)" stroke-width="80" stroke-linejoin="round" d="M 3400,27868 L 5230,26625 7060,25201 8890,24865 10720,24037 12550,23053 14380,22561 16211,20050 18041,19558 19871,18005 21701,18523 23530,16297 25360,14537 27191,13761 29021,11871 30851,14072 32681,12337 34511,10577 36341,10810 38172,8299"/>
 <path fill="none" stroke="rgb(255,66,14)" stroke-width="80" stroke-linejoin="round" d="M 3400,28463 L 5230,27531 7060,26185 8890,26004 10720,25434 12550,23674 14380,23648 16211,21112 18041,21163 19871,19170 21701,20154 23530,18135 25360,17073 27191,15806 29021,14641 30851,15055 32681,14408 34511,12130 36341,15288 38172,11017"/>
 <path fill="none" stroke="rgb(255,211,32)" stroke-width="80" stroke-linejoin="round" d="M 3400,28437 L 5230,26806 7060,25538 8890,25072 10720,24477 12550,22354 14380,22509 16211,20102 18041,19791 19871,17669 21701,19041 23530,16996 25360,15599 27191,14304 29021,13373 30851,13735 32681,11172 34511,10007 36341,13088 38172,9360"/>
 <path fill="none" stroke="rgb(87,157,28)" stroke-width="80" stroke-linejoin="round" d="M 3400,28437 L 5230,27039 7060,25719 8890,25046 10720,24710 12550,22613 14380,22380 16211,20335 18041,20361 19871,17746 21701,19118 23530,16789 25360,16116 27191,13683 29021,13010 30851,13761 32681,12648 34511,10732 36341,13088 38172,9360"/>
 <path fill="none" stroke="rgb(126,0,33)" stroke-width="80" stroke-linejoin="round" d="M 3400,28437 L 5230,26806 7060,25409 8890,25253 10720,24244 12550,22587 14380,22432 16211,19869 18041,19869 19871,17410 21701,18834 23530,16763 25360,15728 27191,13813 29021,13191 30851,13657 32681,11483 34511,10396 36341,13580 38172,9101"/>
 <path fill="none" stroke="rgb(131,202,255)" stroke-width="80" stroke-linejoin="round" d="M 3400,28437 L 5230,27505 7060,26082 8890,25875 10720,25564 12550,23519 14380,23622 16211,21034 18041,21189 19871,18911 21701,19947 23530,18264 25360,17022 27191,15599 29021,14512 30851,15029 32681,13657 34511,11923 36341,15081 38172,10836"/>
 <path fill="none" stroke="rgb(49,64,4)" stroke-width="80" stroke-linejoin="round" d="M 3400,28437 L 5230,27505 7060,26082 8890,25875 10720,25564 12550,23519 14380,23622 16211,21034 18041,21189 19871,18911 21701,19947 23530,18264 25360,17022 27191,15625 29021,14512 30851,15029 32681,13657 34511,11923 36341,15133 38172,10862"/>
 <path fill="none" stroke="rgb(174,207,0)" stroke-width="80" stroke-linejoin="round" d="M 3400,28437 L 5230,27505 7060,26082 8890,25875 10720,25564 12550,23519 14380,23622 16211,21034 18041,21189 19871,18911 21701,19947 23530,18264 25360,17022 27191,15625 29021,14512 30851,15029 32681,13657 34511,11923 36341,15133 38172,10862"/>
 <text class="TextShape"><tspan class="TextParagraph" font-family="Arial, sans-serif" font-size="353px" font-weight="400"><tspan class="TextPosition" x="3215" y="31672"><tspan fill="rgb(0,0,0)" stroke="none">10</tspan></tspan></tspan></text>
 <text class="TextShape"><tspan class="TextParagraph" font-family="Arial, sans-serif" font-size="353px" font-weight="400"><tspan class="TextPosition" x="5045" y="31672"><tspan fill="rgb(0,0,0)" stroke="none">15</tspan></tspan></tspan></text>
 <text class="TextShape"><tspan class="TextParagraph" font-family="Arial, sans-serif" font-size="353px" font-weight="400"><tspan class="TextPosition" x="6875" y="31672"><tspan fill="rgb(0,0,0)" stroke="none">20</tspan></tspan></tspan></text>
 <text class="TextShape"><tspan class="TextParagraph" font-family="Arial, sans-serif" font-size="353px" font-weight="400"><tspan class="TextPosition" x="8705" y="31672"><tspan fill="rgb(0,0,0)" stroke="none">25</tspan></tspan></tspan></text>
 <text class="TextShape"><tspan class="TextParagraph" font-family="Arial, sans-serif" font-size="353px" font-weight="400"><tspan class="TextPosition" x="10535" y="31672"><tspan fill="rgb(0,0,0)" stroke="none">30</tspan></tspan></tspan></text>
 <text class="TextShape"><tspan class="TextParagraph" font-family="Arial, sans-serif" font-size="353px" font-weight="400"><tspan class="TextPosition" x="12365" y="31672"><tspan fill="rgb(0,0,0)" stroke="none">35</tspan></tspan></tspan></text>
 <text class="TextShape"><tspan class="TextParagraph" font-family="Arial, sans-serif" font-size="353px" font-weight="400"><tspan class="TextPosition" x="14195" y="31672"><tspan fill="rgb(0,0,0)" stroke="none">40</tspan></tspan></tspan></text>
 <text class="TextShape"><tspan class="TextParagraph" font-family="Arial, sans-serif" font-size="353px" font-weight="400"><tspan class="TextPosition" x="16026" y="31672"><tspan fill="rgb(0,0,0)" stroke="none">45</tspan></tspan></tspan></text>
 <text class="TextShape"><tspan class="TextParagraph" font-family="Arial, sans-serif" font-size="353px" font-weight="400"><tspan class="TextPosition" x="17856" y="31672"><tspan fill="rgb(0,0,0)" stroke="none">50</tspan></tspan></tspan></text>
 <text class="TextShape"><tspan class="TextParagraph" font-family="Arial, sans-serif" font-size="353px" font-weight="400"><tspan class="TextPosition" x="19686" y="31672"><tspan fill="rgb(0,0,0)" stroke="none">55</tspan></tspan></tspan></text>
 <text class="TextShape"><tspan class="TextParagraph" font-family="Arial, sans-serif" font-size="353px" font-weight="400"><tspan class="TextPosition" x="21516" y="31672"><tspan fill="rgb(0,0,0)" stroke="none">60</tspan></tspan></tspan></text>
 <text class="TextShape"><tspan class="TextParagraph" font-family="Arial, sans-serif" font-size="353px" font-weight="400"><tspan class="TextPosition" x="23346" y="31672"><tspan fill="rgb(0,0,0)" stroke="none">65</tspan></tspan></tspan></text>
 <text class="TextShape"><tspan class="TextParagraph" font-family="Arial, sans-serif" font-size="353px" font-weight="400"><tspan class="TextPosition" x="25176" y="31672"><tspan fill="rgb(0,0,0)" stroke="none">70</tspan></tspan></tspan></text>
 <text class="TextShape"><tspan class="TextParagraph" font-family="Arial, sans-serif" font-size="353px" font-weight="400"><tspan class="TextPosition" x="27007" y="31672"><tspan fill="rgb(0,0,0)" stroke="none">75</tspan></tspan></tspan></text>
 <text class="TextShape"><tspan class="TextParagraph" font-family="Arial, sans-serif" font-size="353px" font-weight="400"><tspan class="TextPosition" x="28837" y="31672"><tspan fill="rgb(0,0,0)" stroke="none">80</tspan></tspan></tspan></text>
 <text class="TextShape"><tspan class="TextParagraph" font-family="Arial, sans-serif" font-size="353px" font-weight="400"><tspan class="TextPosition" x="30667" y="31672"><tspan fill="rgb(0,0,0)" stroke="none">85</tspan></tspan></tspan></text>
 <text class="TextShape"><tspan class="TextParagraph" font-family="Arial, sans-serif" font-size="353px" font-weight="400"><tspan class="TextPosition" x="32497" y="31672"><tspan fill="rgb(0,0,0)" stroke="none">90</tspan></tspan></tspan></text>
 <text class="TextShape"><tspan class="TextParagraph" font-family="Arial, sans-serif" font-size="353px" font-weight="400"><tspan class="TextPosition" x="34327" y="31672"><tspan fill="rgb(0,0,0)" stroke="none">95</tspan></tspan></tspan></text>
 <text class="TextShape"><tspan class="TextParagraph" font-family="Arial, sans-serif" font-size="353px" font-weight="400"><tspan class="TextPosition" x="36064" y="31672"><tspan fill="rgb(0,0,0)" stroke="none">100</tspan></tspan></tspan></text>
 <text class="TextShape"><tspan class="TextParagraph" font-family="Arial, sans-serif" font-size="353px" font-weight="400"><tspan class="TextPosition" x="37895" y="31672"><tspan fill="rgb(0,0,0)" stroke="none">105</tspan></tspan></tspan></text>
 <text class="TextShape"><tspan class="TextParagraph" font-family="Arial, sans-serif" font-size="353px" font-weight="400"><tspan class="TextPosition" x="2965" y="31225"><tspan fill="rgb(0,0,0)" stroke="none">0</tspan></tspan></tspan></text>
 <text class="TextShape"><tspan class="TextParagraph" font-family="Arial, sans-serif" font-size="353px" font-weight="400"><tspan class="TextPosition" x="2594" y="28636"><tspan fill="rgb(0,0,0)" stroke="none">200</tspan></tspan></tspan></text>
 <text class="TextShape"><tspan class="TextParagraph" font-family="Arial, sans-serif" font-size="353px" font-weight="400"><tspan class="TextPosition" x="2594" y="26047"><tspan fill="rgb(0,0,0)" stroke="none">400</tspan></tspan></tspan></text>
 <text class="TextShape"><tspan class="TextParagraph" font-family="Arial, sans-serif" font-size="353px" font-weight="400"><tspan class="TextPosition" x="2594" y="23459"><tspan fill="rgb(0,0,0)" stroke="none">600</tspan></tspan></tspan></text>
 <text class="TextShape"><tspan class="TextParagraph" font-family="Arial, sans-serif" font-size="353px" font-weight="400"><tspan class="TextPosition" x="2594" y="20870"><tspan fill="rgb(0,0,0)" stroke="none">800</tspan></tspan></tspan></text>
 <text class="TextShape"><tspan class="TextParagraph" font-family="Arial, sans-serif" font-size="353px" font-weight="400"><tspan class="TextPosition" x="2409" y="18282"><tspan fill="rgb(0,0,0)" stroke="none">1000</tspan></tspan></tspan></text>
 <text class="TextShape"><tspan class="TextParagraph" font-family="Arial, sans-serif" font-size="353px" font-weight="400"><tspan class="TextPosition" x="2409" y="15693"><tspan fill="rgb(0,0,0)" stroke="none">1200</tspan></tspan></tspan></text>
 <text class="TextShape"><tspan class="TextParagraph" font-family="Arial, sans-serif" font-size="353px" font-weight="400"><tspan class="TextPosition" x="2409" y="13104"><tspan fill="rgb(0,0,0)" stroke="none">1400</tspan></tspan></tspan></text>
 <text class="TextShape"><tspan class="TextParagraph" font-family="Arial, sans-serif" font-size="353px" font-weight="400"><tspan class="TextPosition" x="2409" y="10516"><tspan fill="rgb(0,0,0)" stroke="none">1600</tspan></tspan></tspan></text>
 <text class="TextShape"><tspan class="TextParagraph" font-family="Arial, sans-serif" font-size="353px" font-weight="400"><tspan class="TextPosition" x="2409" y="7927"><tspan fill="rgb(0,0,0)" stroke="none">1800</tspan></tspan></tspan></text>
 <text class="TextShape"><tspan class="TextParagraph" font-family="Arial, sans-serif" font-size="353px" font-weight="400"><tspan class="TextPosition" x="2409" y="5339"><tspan fill="rgb(0,0,0)" stroke="none">2000</tspan></tspan></tspan></text>
 <text class="TextShape"><tspan class="TextParagraph" font-family="Arial, sans-serif" font-size="459px" font-weight="400"><tspan class="TextPosition" x="17945" y="2714"><tspan fill="rgb(0,0,0)" stroke="none">Variation of Entropy with # of registers</tspan></tspan></tspan></text>
 <path fill="none" stroke="rgb(0,69,134)" stroke-width="80" stroke-linejoin="round" d="M 39941,14221 L 40741,14221"/>
 <path fill="none" stroke="rgb(255,66,14)" stroke-width="80" stroke-linejoin="round" d="M 39941,14719 L 40741,14719"/>
 <path fill="none" stroke="rgb(255,211,32)" stroke-width="80" stroke-linejoin="round" d="M 39941,15217 L 40741,15217"/>
 <path fill="none" stroke="rgb(87,157,28)" stroke-width="80" stroke-linejoin="round" d="M 39941,15715 L 40741,15715"/>
 <path fill="none" stroke="rgb(126,0,33)" stroke-width="80" stroke-linejoin="round" d="M 39941,16212 L 40741,16212"/>
 <path fill="none" stroke="rgb(131,202,255)" stroke-width="80" stroke-linejoin="round" d="M 39941,16710 L 40741,16710"/>
 <path fill="none" stroke="rgb(49,64,4)" stroke-width="80" stroke-linejoin="round" d="M 39941,17208 L 40741,17208"/>
 <path fill="none" stroke="rgb(174,207,0)" stroke-width="80" stroke-linejoin="round" d="M 39941,17706 L 40741,17706"/>
 <text class="TextShape"><tspan class="TextParagraph" font-family="Arial, sans-serif" font-size="353px" font-weight="400"><tspan class="TextPosition" x="40841" y="14341"><tspan fill="rgb(0,0,0)" stroke="none">Initial_Value</tspan></tspan></tspan></text>
 <text class="TextShape"><tspan class="TextParagraph" font-family="Arial, sans-serif" font-size="353px" font-weight="400"><tspan class="TextPosition" x="40841" y="14839"><tspan fill="rgb(0,0,0)" stroke="none">Random_Value</tspan></tspan></tspan></text>
 <text class="TextShape"><tspan class="TextParagraph" font-family="Arial, sans-serif" font-size="353px" font-weight="400"><tspan class="TextPosition" x="40841" y="15337"><tspan fill="rgb(0,0,0)" stroke="none">Left_Left_Value</tspan></tspan></tspan></text>
 <text class="TextShape"><tspan class="TextParagraph" font-family="Arial, sans-serif" font-size="353px" font-weight="400"><tspan class="TextPosition" x="40841" y="15835"><tspan fill="rgb(0,0,0)" stroke="none">Left_Right_Value</tspan></tspan></tspan></text>
 <text class="TextShape"><tspan class="TextParagraph" font-family="Arial, sans-serif" font-size="353px" font-weight="400"><tspan class="TextPosition" x="40841" y="16332"><tspan fill="rgb(0,0,0)" stroke="none">Center_Center_Value</tspan></tspan></tspan></text>
 <text class="TextShape"><tspan class="TextParagraph" font-family="Arial, sans-serif" font-size="353px" font-weight="400"><tspan class="TextPosition" x="40841" y="16830"><tspan fill="rgb(0,0,0)" stroke="none">Left_Left_Random_Value</tspan></tspan></tspan></text>
 <text class="TextShape"><tspan class="TextParagraph" font-family="Arial, sans-serif" font-size="353px" font-weight="400"><tspan class="TextPosition" x="40841" y="17328"><tspan fill="rgb(0,0,0)" stroke="none">Left_Right_Random_Value</tspan></tspan></tspan></text>
 <text class="TextShape"><tspan class="TextParagraph" font-family="Arial, sans-serif" font-size="353px" font-weight="400"><tspan class="TextPosition" x="40841" y="17826"><tspan fill="rgb(0,0,0)" stroke="none">Center_Center_Random_Value</tspan></tspan></tspan></text>
 <text class="TextShape"><tspan class="TextParagraph" font-family="Arial, sans-serif" font-size="318px" font-weight="400"><tspan class="TextPosition" x="38897" y="31672"><tspan fill="rgb(0,0,0)" stroke="none">Registers</tspan></tspan></tspan></text>
 <text class="TextShape"><tspan class="TextParagraph" font-family="Arial, sans-serif" font-size="318px" font-weight="400"><tspan class="TextPosition" x="1317" y="18942" transform="translate(1317,18942) rotate(-89.9) translate(-1317,-18942)"><tspan fill="rgb(0,0,0)" stroke="none">Entropy</tspan></tspan></tspan></text>
</svg>