<?xml version="1.0" encoding="UTF-8"?>
<!DOCTYPE svg PUBLIC "-//W3C//DTD SVG 1.1//EN" "http://www.w3.org/Graphics/SVG/1.1/DTD/svg11.dtd">
<svg width="317mm" height="235mm" viewBox="0 0 31700 23500">
 <path fill="rgb(255,255,255)" stroke="none" d="M 15845,23529 L 20,23529 20,0 31669,0 31669,23529 15845,23529 Z"/>
 <path fill="none" stroke="rgb(179,179,179)" stroke-linejoin="round" d="M 14600,21431 L 2656,21431 2656,3020 26544,3020 26544,21431 14600,21431 Z"/>
 <path fill="none" stroke="rgb(179,179,179)" stroke-linejoin="round" d="M 26544,21430 L 2656,21430"/>
 <path fill="none" stroke="rgb(179,179,179)" stroke-linejoin="round" d="M 26544,19588 L 2656,19588"/>
 <path fill="none" stroke="rgb(179,179,179)" stroke-linejoin="round" d="M 26544,17747 L 2656,17747"/>
 <path fill="none" stroke="rgb(179,179,179)" stroke-linejoin="round" d="M 26544,15906 L 2656,15906"/>
 <path fill="none" stroke="rgb(179,179,179)" stroke-linejoin="round" d="M 26544,14065 L 2656,14065"/>
 <path fill="none" stroke="rgb(179,179,179)" stroke-linejoin="round" d="M 26544,12224 L 2656,12224"/>
 <path fill="none" stroke="rgb(179,179,179)" stroke-linejoin="round" d="M 26544,10383 L 2656,10383"/>
 <path fill="none" stroke="rgb(179,179,179)" stroke-linejoin="round" d="M 26544,8542 L 2656,8542"/>
 <path fill="none" stroke="rgb(179,179,179)" stroke-linejoin="round" d="M 26544,6701 L 2656,6701"/>
 <path fill="none" stroke="rgb(179,179,179)" stroke-linejoin="round" d="M 26544,4860 L 2656,4860"/>
 <path fill="none" stroke="rgb(179,179,179)" stroke-linejoin="round" d="M 26544,3019 L 2656,3019"/>
 <path fill="none" stroke="rgb(179,179,179)" stroke-linejoin="round" d="M 2656,21580 L 2656,21430"/>
 <path fill="none" stroke="rgb(179,179,179)" stroke-linejoin="round" d="M 2656,21580 L 2656,21430"/>
 <path fill="none" stroke="rgb(179,179,179)" stroke-linejoin="round" d="M 3913,21580 L 3913,21430"/>
 <path fill="none" stroke="rgb(179,179,179)" stroke-linejoin="round" d="M 3913,21580 L 3913,21430"/>
 <path fill="none" stroke="rgb(179,179,179)" stroke-linejoin="round" d="M 5170,21580 L 5170,21430"/>
 <path fill="none" stroke="rgb(179,179,179)" stroke-linejoin="round" d="M 5170,21580 L 5170,21430"/>
 <path fill="none" stroke="rgb(179,179,179)" stroke-linejoin="round" d="M 6427,21580 L 6427,21430"/>
 <path fill="none" stroke="rgb(179,179,179)" stroke-linejoin="round" d="M 6427,21580 L 6427,21430"/>
 <path fill="none" stroke="rgb(179,179,179)" stroke-linejoin="round" d="M 7685,21580 L 7685,21430"/>
 <path fill="none" stroke="rgb(179,179,179)" stroke-linejoin="round" d="M 7685,21580 L 7685,21430"/>
 <path fill="none" stroke="rgb(179,179,179)" stroke-linejoin="round" d="M 8942,21580 L 8942,21430"/>
 <path fill="none" stroke="rgb(179,179,179)" stroke-linejoin="round" d="M 8942,21580 L 8942,21430"/>
 <path fill="none" stroke="rgb(179,179,179)" stroke-linejoin="round" d="M 10199,21580 L 10199,21430"/>
 <path fill="none" stroke="rgb(179,179,179)" stroke-linejoin="round" d="M 10199,21580 L 10199,21430"/>
 <path fill="none" stroke="rgb(179,179,179)" stroke-linejoin="round" d="M 11457,21580 L 11457,21430"/>
 <path fill="none" stroke="rgb(179,179,179)" stroke-linejoin="round" d="M 11457,21580 L 11457,21430"/>
 <path fill="none" stroke="rgb(179,179,179)" stroke-linejoin="round" d="M 12714,21580 L 12714,21430"/>
 <path fill="none" stroke="rgb(179,179,179)" stroke-linejoin="round" d="M 12714,21580 L 12714,21430"/>
 <path fill="none" stroke="rgb(179,179,179)" stroke-linejoin="round" d="M 13971,21580 L 13971,21430"/>
 <path fill="none" stroke="rgb(179,179,179)" stroke-linejoin="round" d="M 13971,21580 L 13971,21430"/>
 <path fill="none" stroke="rgb(179,179,179)" stroke-linejoin="round" d="M 15229,21580 L 15229,21430"/>
 <path fill="none" stroke="rgb(179,179,179)" stroke-linejoin="round" d="M 15229,21580 L 15229,21430"/>
 <path fill="none" stroke="rgb(179,179,179)" stroke-linejoin="round" d="M 16485,21580 L 16485,21430"/>
 <path fill="none" stroke="rgb(179,179,179)" stroke-linejoin="round" d="M 16485,21580 L 16485,21430"/>
 <path fill="none" stroke="rgb(179,179,179)" stroke-linejoin="round" d="M 17742,21580 L 17742,21430"/>
 <path fill="none" stroke="rgb(179,179,179)" stroke-linejoin="round" d="M 17742,21580 L 17742,21430"/>
 <path fill="none" stroke="rgb(179,179,179)" stroke-linejoin="round" d="M 19000,21580 L 19000,21430"/>
 <path fill="none" stroke="rgb(179,179,179)" stroke-linejoin="round" d="M 19000,21580 L 19000,21430"/>
 <path fill="none" stroke="rgb(179,179,179)" stroke-linejoin="round" d="M 20257,21580 L 20257,21430"/>
 <path fill="none" stroke="rgb(179,179,179)" stroke-linejoin="round" d="M 20257,21580 L 20257,21430"/>
 <path fill="none" stroke="rgb(179,179,179)" stroke-linejoin="round" d="M 21514,21580 L 21514,21430"/>
 <path fill="none" stroke="rgb(179,179,179)" stroke-linejoin="round" d="M 21514,21580 L 21514,21430"/>
 <path fill="none" stroke="rgb(179,179,179)" stroke-linejoin="round" d="M 22772,21580 L 22772,21430"/>
 <path fill="none" stroke="rgb(179,179,179)" stroke-linejoin="round" d="M 22772,21580 L 22772,21430"/>
 <path fill="none" stroke="rgb(179,179,179)" stroke-linejoin="round" d="M 24029,21580 L 24029,21430"/>
 <path fill="none" stroke="rgb(179,179,179)" stroke-linejoin="round" d="M 24029,21580 L 24029,21430"/>
 <path fill="none" stroke="rgb(179,179,179)" stroke-linejoin="round" d="M 25286,21580 L 25286,21430"/>
 <path fill="none" stroke="rgb(179,179,179)" stroke-linejoin="round" d="M 25286,21580 L 25286,21430"/>
 <path fill="none" stroke="rgb(179,179,179)" stroke-linejoin="round" d="M 26544,21580 L 26544,21430"/>
 <path fill="none" stroke="rgb(179,179,179)" stroke-linejoin="round" d="M 26544,21580 L 26544,21430"/>
 <path fill="none" stroke="rgb(179,179,179)" stroke-linejoin="round" d="M 2656,21430 L 26544,21430"/>
 <path fill="none" stroke="rgb(179,179,179)" stroke-linejoin="round" d="M 2506,21430 L 2656,21430"/>
 <path fill="none" stroke="rgb(179,179,179)" stroke-linejoin="round" d="M 2506,21430 L 2656,21430"/>
 <path fill="none" stroke="rgb(179,179,179)" stroke-linejoin="round" d="M 2506,19588 L 2656,19588"/>
 <path fill="none" stroke="rgb(179,179,179)" stroke-linejoin="round" d="M 2506,19588 L 2656,19588"/>
 <path fill="none" stroke="rgb(179,179,179)" stroke-linejoin="round" d="M 2506,17747 L 2656,17747"/>
 <path fill="none" stroke="rgb(179,179,179)" stroke-linejoin="round" d="M 2506,17747 L 2656,17747"/>
 <path fill="none" stroke="rgb(179,179,179)" stroke-linejoin="round" d="M 2506,15906 L 2656,15906"/>
 <path fill="none" stroke="rgb(179,179,179)" stroke-linejoin="round" d="M 2506,15906 L 2656,15906"/>
 <path fill="none" stroke="rgb(179,179,179)" stroke-linejoin="round" d="M 2506,14065 L 2656,14065"/>
 <path fill="none" stroke="rgb(179,179,179)" stroke-linejoin="round" d="M 2506,14065 L 2656,14065"/>
 <path fill="none" stroke="rgb(179,179,179)" stroke-linejoin="round" d="M 2506,12224 L 2656,12224"/>
 <path fill="none" stroke="rgb(179,179,179)" stroke-linejoin="round" d="M 2506,12224 L 2656,12224"/>
 <path fill="none" stroke="rgb(179,179,179)" stroke-linejoin="round" d="M 2506,10383 L 2656,10383"/>
 <path fill="none" stroke="rgb(179,179,179)" stroke-linejoin="round" d="M 2506,10383 L 2656,10383"/>
 <path fill="none" stroke="rgb(179,179,179)" stroke-linejoin="round" d="M 2506,8542 L 2656,8542"/>
 <path fill="none" stroke="rgb(179,179,179)" stroke-linejoin="round" d="M 2506,8542 L 2656,8542"/>
 <path fill="none" stroke="rgb(179,179,179)" stroke-linejoin="round" d="M 2506,6701 L 2656,6701"/>
 <path fill="none" stroke="rgb(179,179,179)" stroke-linejoin="round" d="M 2506,6701 L 2656,6701"/>
 <path fill="none" stroke="rgb(179,179,179)" stroke-linejoin="round" d="M 2506,4860 L 2656,4860"/>
 <path fill="none" stroke="rgb(179,179,179)" stroke-linejoin="round" d="M 2506,4860 L 2656,4860"/>
 <path fill="none" stroke="rgb(179,179,179)" stroke-linejoin="round" d="M 2506,3019 L 2656,3019"/>
 <path fill="none" stroke="rgb(179,179,179)" stroke-linejoin="round" d="M 2506,3019 L 2656,3019"/>
 <path fill="none" stroke="rgb(179,179,179)" stroke-linejoin="round" d="M 2656,21430 L 2656,3019"/>
 <path fill="none" stroke="rgb(0,69,134)" stroke-width="80" stroke-linejoin="round" d="M 2656,19146 L 3913,18428 5170,17471 6427,17342 7685,16311 8942,15464 10199,15335 11457,13715 12714,13383 13971,12334 15229,12426 16485,11874 17742,10715 19000,8910 20257,7695 21514,8119 22772,7658 24029,5725 25286,6701 26544,5302"/>
 <path fill="none" stroke="rgb(255,66,14)" stroke-width="80" stroke-linejoin="round" d="M 2656,19496 L 3913,18833 5170,17950 6427,17729 7685,17434 8942,16127 10199,16053 11457,14322 12714,14378 13971,12905 15229,13623 16485,12592 17742,11433 19000,10328 20257,9757 21514,9794 22772,9426 24029,7787 25286,9997 26544,7180"/>
 <path fill="none" stroke="rgb(255,211,32)" stroke-width="80" stroke-linejoin="round" d="M 2656,19533 L 3913,18557 5170,17453 6427,17287 7685,16808 8942,15280 10199,15519 11457,13568 12714,13678 13971,11764 15229,12960 16485,11341 17742,10439 19000,9094 20257,8653 21514,9187 22772,8045 24029,6793 25286,8487 26544,6369"/>
 <path fill="none" stroke="rgb(87,157,28)" stroke-width="80" stroke-linejoin="round" d="M 2656,19533 L 3913,18465 5170,17489 6427,17140 7685,16734 8942,15372 10199,15114 11457,13696 12714,13586 13971,12150 15229,12905 16485,11267 17742,10218 19000,9702 20257,8910 21514,8910 22772,8284 24029,7106 25286,9058 26544,6038"/>
 <path fill="none" stroke="rgb(126,0,33)" stroke-width="80" stroke-linejoin="round" d="M 2656,19533 L 3913,18484 5170,17508 6427,17121 7685,16771 8942,15335 10199,15096 11457,13660 12714,13733 13971,12076 15229,12831 16485,11304 17742,10752 19000,9407 20257,8561 21514,8892 22772,8119 24029,7014 25286,9094 26544,6075"/>
 <path fill="none" stroke="rgb(131,202,255)" stroke-width="80" stroke-linejoin="round" d="M 2656,19533 L 3913,18539 5170,17471 6427,17121 7685,16845 8942,15335 10199,15096 11457,13660 12714,13991 13971,12076 15229,12831 16485,11304 17742,10531 19000,9205 20257,8561 21514,9168 22772,8303 24029,6903 25286,8874 26544,6038"/>
 <path fill="none" stroke="rgb(49,64,4)" stroke-width="80" stroke-linejoin="round" d="M 2656,19533 L 3913,18539 5170,17489 6427,17121 7685,16882 8942,15390 10199,15280 11457,13660 12714,13973 13971,11966 15229,12868 16485,11304 17742,10696 19000,9039 20257,8561 21514,9094 22772,8303 24029,6903 25286,8837 26544,6167"/>
 <path fill="none" stroke="rgb(174,207,0)" stroke-width="80" stroke-linejoin="round" d="M 2656,19533 L 3913,18539 5170,17600 6427,17121 7685,16882 8942,15390 10199,15225 11457,13770 12714,13789 13971,11929 15229,12905 16485,11249 17742,10770 19000,9039 20257,8561 21514,9094 22772,8303 24029,6940 25286,8616 26544,5964"/>
 <path fill="none" stroke="rgb(75,31,111)" stroke-width="80" stroke-linejoin="round" d="M 2656,19533 L 3913,18576 5170,17545 6427,17121 7685,16882 8942,15390 10199,15225 11457,13770 12714,13789 13971,12003 15229,12850 16485,11230 17742,10770 19000,9039 20257,8450 21514,9113 22772,7916 24029,7032 25286,8634 26544,5964"/>
 <path fill="none" stroke="rgb(255,149,14)" stroke-width="80" stroke-linejoin="round" d="M 2656,19533 L 3913,18557 5170,17489 6427,17121 7685,16882 8942,15390 10199,15225 11457,13770 12714,13733 13971,12003 15229,12850 16485,11230 17742,10770 19000,9426 20257,8395 21514,9315 22772,7916 24029,6811 25286,8561 26544,5964"/>
 <path fill="none" stroke="rgb(197,0,11)" stroke-width="80" stroke-linejoin="round" d="M 2656,19533 L 3913,18502 5170,17434 6427,17011 7685,16863 8942,15390 10199,15225 11457,13770 12714,13733 13971,12003 15229,12850 16485,11230 17742,10770 19000,9426 20257,8413 21514,9315 22772,7842 24029,6793 25286,8579 26544,5964"/>
 <path fill="none" stroke="rgb(0,132,209)" stroke-width="80" stroke-linejoin="round" d="M 2656,19533 L 3913,18502 5170,17471 6427,17029 7685,16863 8942,15390 10199,15225 11457,13844 12714,13733 13971,12003 15229,12850 16485,11414 17742,10770 19000,9426 20257,8413 21514,9242 22772,7750 24029,6498 25286,9002 26544,5964"/>
 <path fill="none" stroke="rgb(0,69,134)" stroke-width="80" stroke-linejoin="round" d="M 2656,19533 L 3913,18594 5170,17471 6427,17029 7685,16863 8942,15409 10199,15354 11457,13844 12714,13733 13971,12003 15229,12850 16485,11285 17742,10770 19000,9426 20257,8395 21514,9242 22772,7750 24029,6498 25286,9002 26544,5983"/>
 <text class="TextShape"><tspan class="TextParagraph" font-family="Arial" font-size="353px" font-weight="400"><tspan class="TextPosition" x="2563" y="21998"><tspan fill="rgb(0,0,0)" stroke="none">1</tspan></tspan></tspan></text>
 <text class="TextShape"><tspan class="TextParagraph" font-family="Arial" font-size="353px" font-weight="400"><tspan class="TextPosition" x="3820" y="21998"><tspan fill="rgb(0,0,0)" stroke="none">2</tspan></tspan></tspan></text>
 <text class="TextShape"><tspan class="TextParagraph" font-family="Arial" font-size="353px" font-weight="400"><tspan class="TextPosition" x="5077" y="21998"><tspan fill="rgb(0,0,0)" stroke="none">3</tspan></tspan></tspan></text>
 <text class="TextShape"><tspan class="TextParagraph" font-family="Arial" font-size="353px" font-weight="400"><tspan class="TextPosition" x="6334" y="21998"><tspan fill="rgb(0,0,0)" stroke="none">4</tspan></tspan></tspan></text>
 <text class="TextShape"><tspan class="TextParagraph" font-family="Arial" font-size="353px" font-weight="400"><tspan class="TextPosition" x="7592" y="21998"><tspan fill="rgb(0,0,0)" stroke="none">5</tspan></tspan></tspan></text>
 <text class="TextShape"><tspan class="TextParagraph" font-family="Arial" font-size="353px" font-weight="400"><tspan class="TextPosition" x="8849" y="21998"><tspan fill="rgb(0,0,0)" stroke="none">6</tspan></tspan></tspan></text>
 <text class="TextShape"><tspan class="TextParagraph" font-family="Arial" font-size="353px" font-weight="400"><tspan class="TextPosition" x="10106" y="21998"><tspan fill="rgb(0,0,0)" stroke="none">7</tspan></tspan></tspan></text>
 <text class="TextShape"><tspan class="TextParagraph" font-family="Arial" font-size="353px" font-weight="400"><tspan class="TextPosition" x="11364" y="21998"><tspan fill="rgb(0,0,0)" stroke="none">8</tspan></tspan></tspan></text>
 <text class="TextShape"><tspan class="TextParagraph" font-family="Arial" font-size="353px" font-weight="400"><tspan class="TextPosition" x="12621" y="21998"><tspan fill="rgb(0,0,0)" stroke="none">9</tspan></tspan></tspan></text>
 <text class="TextShape"><tspan class="TextParagraph" font-family="Arial" font-size="353px" font-weight="400"><tspan class="TextPosition" x="13786" y="21998"><tspan fill="rgb(0,0,0)" stroke="none">10</tspan></tspan></tspan></text>
 <text class="TextShape"><tspan class="TextParagraph" font-family="Arial" font-size="353px" font-weight="400"><tspan class="TextPosition" x="15044" y="21998"><tspan fill="rgb(0,0,0)" stroke="none">11</tspan></tspan></tspan></text>
 <text class="TextShape"><tspan class="TextParagraph" font-family="Arial" font-size="353px" font-weight="400"><tspan class="TextPosition" x="16301" y="21998"><tspan fill="rgb(0,0,0)" stroke="none">12</tspan></tspan></tspan></text>
 <text class="TextShape"><tspan class="TextParagraph" font-family="Arial" font-size="353px" font-weight="400"><tspan class="TextPosition" x="17558" y="21998"><tspan fill="rgb(0,0,0)" stroke="none">13</tspan></tspan></tspan></text>
 <text class="TextShape"><tspan class="TextParagraph" font-family="Arial" font-size="353px" font-weight="400"><tspan class="TextPosition" x="18816" y="21998"><tspan fill="rgb(0,0,0)" stroke="none">14</tspan></tspan></tspan></text>
 <text class="TextShape"><tspan class="TextParagraph" font-family="Arial" font-size="353px" font-weight="400"><tspan class="TextPosition" x="20073" y="21998"><tspan fill="rgb(0,0,0)" stroke="none">15</tspan></tspan></tspan></text>
 <text class="TextShape"><tspan class="TextParagraph" font-family="Arial" font-size="353px" font-weight="400"><tspan class="TextPosition" x="21330" y="21998"><tspan fill="rgb(0,0,0)" stroke="none">16</tspan></tspan></tspan></text>
 <text class="TextShape"><tspan class="TextParagraph" font-family="Arial" font-size="353px" font-weight="400"><tspan class="TextPosition" x="22588" y="21998"><tspan fill="rgb(0,0,0)" stroke="none">17</tspan></tspan></tspan></text>
 <text class="TextShape"><tspan class="TextParagraph" font-family="Arial" font-size="353px" font-weight="400"><tspan class="TextPosition" x="23845" y="21998"><tspan fill="rgb(0,0,0)" stroke="none">18</tspan></tspan></tspan></text>
 <text class="TextShape"><tspan class="TextParagraph" font-family="Arial" font-size="353px" font-weight="400"><tspan class="TextPosition" x="25102" y="21998"><tspan fill="rgb(0,0,0)" stroke="none">19</tspan></tspan></tspan></text>
 <text class="TextShape"><tspan class="TextParagraph" font-family="Arial" font-size="353px" font-weight="400"><tspan class="TextPosition" x="26360" y="21998"><tspan fill="rgb(0,0,0)" stroke="none">20</tspan></tspan></tspan></text>
 <text class="TextShape"><tspan class="TextParagraph" font-family="Arial" font-size="353px" font-weight="400"><tspan class="TextPosition" x="2221" y="21551"><tspan fill="rgb(0,0,0)" stroke="none">0</tspan></tspan></tspan></text>
 <text class="TextShape"><tspan class="TextParagraph" font-family="Arial" font-size="353px" font-weight="400"><tspan class="TextPosition" x="1850" y="19709"><tspan fill="rgb(0,0,0)" stroke="none">200</tspan></tspan></tspan></text>
 <text class="TextShape"><tspan class="TextParagraph" font-family="Arial" font-size="353px" font-weight="400"><tspan class="TextPosition" x="1850" y="17868"><tspan fill="rgb(0,0,0)" stroke="none">400</tspan></tspan></tspan></text>
 <text class="TextShape"><tspan class="TextParagraph" font-family="Arial" font-size="353px" font-weight="400"><tspan class="TextPosition" x="1850" y="16027"><tspan fill="rgb(0,0,0)" stroke="none">600</tspan></tspan></tspan></text>
 <text class="TextShape"><tspan class="TextParagraph" font-family="Arial" font-size="353px" font-weight="400"><tspan class="TextPosition" x="1850" y="14186"><tspan fill="rgb(0,0,0)" stroke="none">800</tspan></tspan></tspan></text>
 <text class="TextShape"><tspan class="TextParagraph" font-family="Arial" font-size="353px" font-weight="400"><tspan class="TextPosition" x="1665" y="12345"><tspan fill="rgb(0,0,0)" stroke="none">1000</tspan></tspan></tspan></text>
 <text class="TextShape"><tspan class="TextParagraph" font-family="Arial" font-size="353px" font-weight="400"><tspan class="TextPosition" x="1665" y="10503"><tspan fill="rgb(0,0,0)" stroke="none">1200</tspan></tspan></tspan></text>
 <text class="TextShape"><tspan class="TextParagraph" font-family="Arial" font-size="353px" font-weight="400"><tspan class="TextPosition" x="1665" y="8662"><tspan fill="rgb(0,0,0)" stroke="none">1400</tspan></tspan></tspan></text>
 <text class="TextShape"><tspan class="TextParagraph" font-family="Arial" font-size="353px" font-weight="400"><tspan class="TextPosition" x="1665" y="6821"><tspan fill="rgb(0,0,0)" stroke="none">1600</tspan></tspan></tspan></text>
 <text class="TextShape"><tspan class="TextParagraph" font-family="Arial" font-size="353px" font-weight="400"><tspan class="TextPosition" x="1665" y="4980"><tspan fill="rgb(0,0,0)" stroke="none">1800</tspan></tspan></tspan></text>
 <text class="TextShape"><tspan class="TextParagraph" font-family="Arial" font-size="353px" font-weight="400"><tspan class="TextPosition" x="1665" y="3139"><tspan fill="rgb(0,0,0)" stroke="none">2000</tspan></tspan></tspan></text>
 <text class="TextShape"><tspan class="TextParagraph" font-family="Arial" font-size="459px" font-weight="400"><tspan class="TextPosition" x="12604" y="1167"><tspan fill="rgb(0,0,0)" stroke="none">Variation of Parameters left_right</tspan></tspan></tspan></text>
 <path fill="none" stroke="rgb(0,69,134)" stroke-width="80" stroke-linejoin="round" d="M 28113,8776 L 28913,8776"/>
 <path fill="none" stroke="rgb(255,66,14)" stroke-width="80" stroke-linejoin="round" d="M 28113,9274 L 28913,9274"/>
 <path fill="none" stroke="rgb(255,211,32)" stroke-width="80" stroke-linejoin="round" d="M 28113,9772 L 28913,9772"/>
 <path fill="none" stroke="rgb(87,157,28)" stroke-width="80" stroke-linejoin="round" d="M 28113,10270 L 28913,10270"/>
 <path fill="none" stroke="rgb(126,0,33)" stroke-width="80" stroke-linejoin="round" d="M 28113,10768 L 28913,10768"/>
 <path fill="none" stroke="rgb(131,202,255)" stroke-width="80" stroke-linejoin="round" d="M 28113,11266 L 28913,11266"/>
 <path fill="none" stroke="rgb(49,64,4)" stroke-width="80" stroke-linejoin="round" d="M 28113,11764 L 28913,11764"/>
 <path fill="none" stroke="rgb(174,207,0)" stroke-width="80" stroke-linejoin="round" d="M 28113,12261 L 28913,12261"/>
 <path fill="none" stroke="rgb(75,31,111)" stroke-width="80" stroke-linejoin="round" d="M 28113,12759 L 28913,12759"/>
 <path fill="none" stroke="rgb(255,149,14)" stroke-width="80" stroke-linejoin="round" d="M 28113,13257 L 28913,13257"/>
 <path fill="none" stroke="rgb(197,0,11)" stroke-width="80" stroke-linejoin="round" d="M 28113,13755 L 28913,13755"/>
 <path fill="none" stroke="rgb(0,132,209)" stroke-width="80" stroke-linejoin="round" d="M 28113,14253 L 28913,14253"/>
 <path fill="none" stroke="rgb(0,69,134)" stroke-width="80" stroke-linejoin="round" d="M 28113,14751 L 28913,14751"/>
 <text class="TextShape"><tspan class="TextParagraph" font-family="Arial" font-size="353px" font-weight="400"><tspan class="TextPosition" x="29013" y="8896"><tspan fill="rgb(0,0,0)" stroke="none">Initial_Value</tspan></tspan></tspan></text>
 <text class="TextShape"><tspan class="TextParagraph" font-family="Arial" font-size="353px" font-weight="400"><tspan class="TextPosition" x="29013" y="9394"><tspan fill="rgb(0,0,0)" stroke="none">Random_Value</tspan></tspan></tspan></text>
 <text class="TextShape"><tspan class="TextParagraph" font-family="Arial" font-size="353px" font-weight="400"><tspan class="TextPosition" x="29013" y="9892"><tspan fill="rgb(0,0,0)" stroke="none">0</tspan></tspan></tspan></text>
 <text class="TextShape"><tspan class="TextParagraph" font-family="Arial" font-size="353px" font-weight="400"><tspan class="TextPosition" x="29013" y="10390"><tspan fill="rgb(0,0,0)" stroke="none">0.1</tspan></tspan></tspan></text>
 <text class="TextShape"><tspan class="TextParagraph" font-family="Arial" font-size="353px" font-weight="400"><tspan class="TextPosition" x="29013" y="10888"><tspan fill="rgb(0,0,0)" stroke="none">0.2</tspan></tspan></tspan></text>
 <text class="TextShape"><tspan class="TextParagraph" font-family="Arial" font-size="353px" font-weight="400"><tspan class="TextPosition" x="29013" y="11386"><tspan fill="rgb(0,0,0)" stroke="none">0.3</tspan></tspan></tspan></text>
 <text class="TextShape"><tspan class="TextParagraph" font-family="Arial" font-size="353px" font-weight="400"><tspan class="TextPosition" x="29013" y="11883"><tspan fill="rgb(0,0,0)" stroke="none">0.4</tspan></tspan></tspan></text>
 <text class="TextShape"><tspan class="TextParagraph" font-family="Arial" font-size="353px" font-weight="400"><tspan class="TextPosition" x="29013" y="12381"><tspan fill="rgb(0,0,0)" stroke="none">0.5</tspan></tspan></tspan></text>
 <text class="TextShape"><tspan class="TextParagraph" font-family="Arial" font-size="353px" font-weight="400"><tspan class="TextPosition" x="29013" y="12879"><tspan fill="rgb(0,0,0)" stroke="none">0.6</tspan></tspan></tspan></text>
 <text class="TextShape"><tspan class="TextParagraph" font-family="Arial" font-size="353px" font-weight="400"><tspan class="TextPosition" x="29013" y="13377"><tspan fill="rgb(0,0,0)" stroke="none">0.7</tspan></tspan></tspan></text>
 <text class="TextShape"><tspan class="TextParagraph" font-family="Arial" font-size="353px" font-weight="400"><tspan class="TextPosition" x="29013" y="13875"><tspan fill="rgb(0,0,0)" stroke="none">0.8</tspan></tspan></tspan></text>
 <text class="TextShape"><tspan class="TextParagraph" font-family="Arial" font-size="353px" font-weight="400"><tspan class="TextPosition" x="29013" y="14373"><tspan fill="rgb(0,0,0)" stroke="none">0.9</tspan></tspan></tspan></text>
 <text class="TextShape"><tspan class="TextParagraph" font-family="Arial" font-size="353px" font-weight="400"><tspan class="TextPosition" x="29013" y="14871"><tspan fill="rgb(0,0,0)" stroke="none">1</tspan></tspan></tspan></text>
 <text class="TextShape"><tspan class="TextParagraph" font-family="Arial" font-size="318px" font-weight="400"><tspan class="TextPosition" x="13364" y="22935"><tspan fill="rgb(0,0,0)" stroke="none">Data Points</tspan></tspan></tspan></text>
 <text class="TextShape"><tspan class="TextParagraph" font-family="Arial" font-size="318px" font-weight="400"><tspan class="TextPosition" x="857" y="13005" transform="translate(857,13005) rotate(-89.9) translate(-857,-13005)"><tspan fill="rgb(0,0,0)" stroke="none">Entropy</tspan></tspan></tspan></text>
</svg>