<?xml version="1.0" encoding="UTF-8"?>
<!DOCTYPE svg PUBLIC "-//W3C//DTD SVG 1.1//EN" "http://www.w3.org/Graphics/SVG/1.1/DTD/svg11.dtd">
<svg width="313mm" height="239mm" viewBox="0 0 31300 23900">
 <path fill="rgb(255,255,255)" stroke="none" d="M 15683,23905 L 39,23905 39,1 31326,1 31326,23905 15683,23905 Z"/>
 <path fill="none" stroke="rgb(0,0,0)" stroke-linejoin="round" d="M 14442,21799 L 2667,21799 2667,3054 26217,3054 26217,21799 14442,21799 Z"/>
 <path fill="none" stroke="rgb(0,0,0)" stroke-linejoin="round" d="M 26217,21798 L 2667,21798"/>
 <path fill="none" stroke="rgb(0,0,0)" stroke-linejoin="round" d="M 26217,19923 L 2667,19923"/>
 <path fill="none" stroke="rgb(0,0,0)" stroke-linejoin="round" d="M 26217,18048 L 2667,18048"/>
 <path fill="none" stroke="rgb(0,0,0)" stroke-linejoin="round" d="M 26217,16174 L 2667,16174"/>
 <path fill="none" stroke="rgb(0,0,0)" stroke-linejoin="round" d="M 26217,14299 L 2667,14299"/>
 <path fill="none" stroke="rgb(0,0,0)" stroke-linejoin="round" d="M 26217,12424 L 2667,12424"/>
 <path fill="none" stroke="rgb(0,0,0)" stroke-linejoin="round" d="M 26217,10551 L 2667,10551"/>
 <path fill="none" stroke="rgb(0,0,0)" stroke-linejoin="round" d="M 26217,8676 L 2667,8676"/>
 <path fill="none" stroke="rgb(0,0,0)" stroke-linejoin="round" d="M 26217,6802 L 2667,6802"/>
 <path fill="none" stroke="rgb(0,0,0)" stroke-linejoin="round" d="M 26217,4927 L 2667,4927"/>
 <path fill="none" stroke="rgb(0,0,0)" stroke-linejoin="round" d="M 26217,3052 L 2667,3052"/>
 <path fill="none" stroke="rgb(179,179,179)" stroke-linejoin="round" d="M 2667,21948 L 2667,21798"/>
 <path fill="none" stroke="rgb(179,179,179)" stroke-linejoin="round" d="M 2667,21948 L 2667,21798"/>
 <path fill="none" stroke="rgb(179,179,179)" stroke-linejoin="round" d="M 3906,21948 L 3906,21798"/>
 <path fill="none" stroke="rgb(179,179,179)" stroke-linejoin="round" d="M 3906,21948 L 3906,21798"/>
 <path fill="none" stroke="rgb(179,179,179)" stroke-linejoin="round" d="M 5146,21948 L 5146,21798"/>
 <path fill="none" stroke="rgb(179,179,179)" stroke-linejoin="round" d="M 5146,21948 L 5146,21798"/>
 <path fill="none" stroke="rgb(179,179,179)" stroke-linejoin="round" d="M 6385,21948 L 6385,21798"/>
 <path fill="none" stroke="rgb(179,179,179)" stroke-linejoin="round" d="M 6385,21948 L 6385,21798"/>
 <path fill="none" stroke="rgb(179,179,179)" stroke-linejoin="round" d="M 7625,21948 L 7625,21798"/>
 <path fill="none" stroke="rgb(179,179,179)" stroke-linejoin="round" d="M 7625,21948 L 7625,21798"/>
 <path fill="none" stroke="rgb(179,179,179)" stroke-linejoin="round" d="M 8864,21948 L 8864,21798"/>
 <path fill="none" stroke="rgb(179,179,179)" stroke-linejoin="round" d="M 8864,21948 L 8864,21798"/>
 <path fill="none" stroke="rgb(179,179,179)" stroke-linejoin="round" d="M 10104,21948 L 10104,21798"/>
 <path fill="none" stroke="rgb(179,179,179)" stroke-linejoin="round" d="M 10104,21948 L 10104,21798"/>
 <path fill="none" stroke="rgb(179,179,179)" stroke-linejoin="round" d="M 11343,21948 L 11343,21798"/>
 <path fill="none" stroke="rgb(179,179,179)" stroke-linejoin="round" d="M 11343,21948 L 11343,21798"/>
 <path fill="none" stroke="rgb(179,179,179)" stroke-linejoin="round" d="M 12583,21948 L 12583,21798"/>
 <path fill="none" stroke="rgb(179,179,179)" stroke-linejoin="round" d="M 12583,21948 L 12583,21798"/>
 <path fill="none" stroke="rgb(179,179,179)" stroke-linejoin="round" d="M 13822,21948 L 13822,21798"/>
 <path fill="none" stroke="rgb(179,179,179)" stroke-linejoin="round" d="M 13822,21948 L 13822,21798"/>
 <path fill="none" stroke="rgb(179,179,179)" stroke-linejoin="round" d="M 15062,21948 L 15062,21798"/>
 <path fill="none" stroke="rgb(179,179,179)" stroke-linejoin="round" d="M 15062,21948 L 15062,21798"/>
 <path fill="none" stroke="rgb(179,179,179)" stroke-linejoin="round" d="M 16300,21948 L 16300,21798"/>
 <path fill="none" stroke="rgb(179,179,179)" stroke-linejoin="round" d="M 16300,21948 L 16300,21798"/>
 <path fill="none" stroke="rgb(179,179,179)" stroke-linejoin="round" d="M 17540,21948 L 17540,21798"/>
 <path fill="none" stroke="rgb(179,179,179)" stroke-linejoin="round" d="M 17540,21948 L 17540,21798"/>
 <path fill="none" stroke="rgb(179,179,179)" stroke-linejoin="round" d="M 18779,21948 L 18779,21798"/>
 <path fill="none" stroke="rgb(179,179,179)" stroke-linejoin="round" d="M 18779,21948 L 18779,21798"/>
 <path fill="none" stroke="rgb(179,179,179)" stroke-linejoin="round" d="M 20019,21948 L 20019,21798"/>
 <path fill="none" stroke="rgb(179,179,179)" stroke-linejoin="round" d="M 20019,21948 L 20019,21798"/>
 <path fill="none" stroke="rgb(179,179,179)" stroke-linejoin="round" d="M 21258,21948 L 21258,21798"/>
 <path fill="none" stroke="rgb(179,179,179)" stroke-linejoin="round" d="M 21258,21948 L 21258,21798"/>
 <path fill="none" stroke="rgb(179,179,179)" stroke-linejoin="round" d="M 22498,21948 L 22498,21798"/>
 <path fill="none" stroke="rgb(179,179,179)" stroke-linejoin="round" d="M 22498,21948 L 22498,21798"/>
 <path fill="none" stroke="rgb(179,179,179)" stroke-linejoin="round" d="M 23737,21948 L 23737,21798"/>
 <path fill="none" stroke="rgb(179,179,179)" stroke-linejoin="round" d="M 23737,21948 L 23737,21798"/>
 <path fill="none" stroke="rgb(179,179,179)" stroke-linejoin="round" d="M 24977,21948 L 24977,21798"/>
 <path fill="none" stroke="rgb(179,179,179)" stroke-linejoin="round" d="M 24977,21948 L 24977,21798"/>
 <path fill="none" stroke="rgb(179,179,179)" stroke-linejoin="round" d="M 26217,21948 L 26217,21798"/>
 <path fill="none" stroke="rgb(179,179,179)" stroke-linejoin="round" d="M 26217,21948 L 26217,21798"/>
 <path fill="none" stroke="rgb(179,179,179)" stroke-linejoin="round" d="M 2667,21798 L 26217,21798"/>
 <path fill="none" stroke="rgb(179,179,179)" stroke-linejoin="round" d="M 2517,21798 L 2667,21798"/>
 <path fill="none" stroke="rgb(179,179,179)" stroke-linejoin="round" d="M 2517,21798 L 2667,21798"/>
 <path fill="none" stroke="rgb(179,179,179)" stroke-linejoin="round" d="M 2517,19923 L 2667,19923"/>
 <path fill="none" stroke="rgb(179,179,179)" stroke-linejoin="round" d="M 2517,19923 L 2667,19923"/>
 <path fill="none" stroke="rgb(179,179,179)" stroke-linejoin="round" d="M 2517,18048 L 2667,18048"/>
 <path fill="none" stroke="rgb(179,179,179)" stroke-linejoin="round" d="M 2517,18048 L 2667,18048"/>
 <path fill="none" stroke="rgb(179,179,179)" stroke-linejoin="round" d="M 2517,16174 L 2667,16174"/>
 <path fill="none" stroke="rgb(179,179,179)" stroke-linejoin="round" d="M 2517,16174 L 2667,16174"/>
 <path fill="none" stroke="rgb(179,179,179)" stroke-linejoin="round" d="M 2517,14299 L 2667,14299"/>
 <path fill="none" stroke="rgb(179,179,179)" stroke-linejoin="round" d="M 2517,14299 L 2667,14299"/>
 <path fill="none" stroke="rgb(179,179,179)" stroke-linejoin="round" d="M 2517,12424 L 2667,12424"/>
 <path fill="none" stroke="rgb(179,179,179)" stroke-linejoin="round" d="M 2517,12424 L 2667,12424"/>
 <path fill="none" stroke="rgb(179,179,179)" stroke-linejoin="round" d="M 2517,10551 L 2667,10551"/>
 <path fill="none" stroke="rgb(179,179,179)" stroke-linejoin="round" d="M 2517,10551 L 2667,10551"/>
 <path fill="none" stroke="rgb(179,179,179)" stroke-linejoin="round" d="M 2517,8676 L 2667,8676"/>
 <path fill="none" stroke="rgb(179,179,179)" stroke-linejoin="round" d="M 2517,8676 L 2667,8676"/>
 <path fill="none" stroke="rgb(179,179,179)" stroke-linejoin="round" d="M 2517,6802 L 2667,6802"/>
 <path fill="none" stroke="rgb(179,179,179)" stroke-linejoin="round" d="M 2517,6802 L 2667,6802"/>
 <path fill="none" stroke="rgb(179,179,179)" stroke-linejoin="round" d="M 2517,4927 L 2667,4927"/>
 <path fill="none" stroke="rgb(179,179,179)" stroke-linejoin="round" d="M 2517,4927 L 2667,4927"/>
 <path fill="none" stroke="rgb(179,179,179)" stroke-linejoin="round" d="M 2517,3052 L 2667,3052"/>
 <path fill="none" stroke="rgb(179,179,179)" stroke-linejoin="round" d="M 2517,3052 L 2667,3052"/>
 <path fill="none" stroke="rgb(179,179,179)" stroke-linejoin="round" d="M 2667,21798 L 2667,3052"/>
 <path fill="none" stroke="rgb(0,69,134)" stroke-width="80" stroke-linejoin="round" d="M 2667,19604 L 3906,18611 5146,17542 6385,17411 7625,16905 8864,15724 10104,15611 11343,14074 12583,13924 13822,12050 15062,12368 16300,10907 17540,10626 18779,9595 20019,7945 21258,8714 22498,7983 23737,5846 24977,8358 26217,5133"/>
 <path fill="none" stroke="rgb(255,66,14)" stroke-width="80" stroke-linejoin="round" d="M 2667,19867 L 3906,19211 5146,18217 6385,18086 7625,17692 8864,16380 10104,16399 11343,14599 12583,14768 13822,13156 15062,13737 16300,12462 17540,11601 18779,10813 20019,9876 21258,10345 22498,9632 23737,7383 24977,10307 26217,7289"/>
 <path fill="none" stroke="rgb(255,211,32)" stroke-width="80" stroke-linejoin="round" d="M 2667,19867 L 3906,18798 5146,17767 6385,17561 7625,16774 8864,15386 10104,15443 11343,13643 12583,13718 13822,12162 15062,12968 16300,11020 17540,10307 18779,8939 20019,8508 21258,9014 22498,7776 23737,6895 24977,9126 26217,6033"/>
 <path fill="none" stroke="rgb(87,157,28)" stroke-width="80" stroke-linejoin="round" d="M 2667,19867 L 3906,18742 5146,17748 6385,17542 7625,16736 8864,15761 10104,15480 11343,13662 12583,13943 13822,12050 15062,12968 16300,11207 17540,10926 18779,9257 20019,8695 21258,8845 22498,8076 23737,6708 24977,8751 26217,5977"/>
 <path fill="none" stroke="rgb(126,0,33)" stroke-width="80" stroke-linejoin="round" d="M 2667,19867 L 3906,18779 5146,17748 6385,17486 7625,16961 8864,15668 10104,15349 11343,13887 12583,13774 13822,11975 15062,13062 16300,11207 17540,10795 18779,9557 20019,8639 21258,9257 22498,7776 23737,6802 24977,8751 26217,6014"/>
 <path fill="none" stroke="rgb(131,202,255)" stroke-width="80" stroke-linejoin="round" d="M 2667,19867 L 3906,18779 5146,17617 6385,17542 7625,16830 8864,15668 10104,15330 11343,13699 12583,13737 13822,12012 15062,13043 16300,11319 17540,10495 18779,9614 20019,8995 21258,9107 22498,7589 23737,6689 24977,8864 26217,6089"/>
 <path fill="none" stroke="rgb(49,64,4)" stroke-width="80" stroke-linejoin="round" d="M 2667,19867 L 3906,18667 5146,17636 6385,17523 7625,16980 8864,15630 10104,15330 11343,13680 12583,13905 13822,11993 15062,13006 16300,11469 17540,10832 18779,9632 20019,8526 21258,9220 22498,7589 23737,6689 24977,9051 26217,6052"/>
 <path fill="none" stroke="rgb(174,207,0)" stroke-width="80" stroke-linejoin="round" d="M 2667,19867 L 3906,18686 5146,17673 6385,17561 7625,16830 8864,15630 10104,15518 11343,13662 12583,13662 13822,11882 15062,12912 16300,11413 17540,10663 18779,9276 20019,8826 21258,9164 22498,7589 23737,6802 24977,9107 26217,5864"/>
 <path fill="none" stroke="rgb(75,31,111)" stroke-width="80" stroke-linejoin="round" d="M 2667,19867 L 3906,18761 5146,17692 6385,17561 7625,16792 8864,15518 10104,15461 11343,13737 12583,13793 13822,12125 15062,12893 16300,11469 17540,10532 18779,8920 20019,8826 21258,9051 22498,7645 23737,6446 24977,8808 26217,5733"/>
 <path fill="none" stroke="rgb(255,149,14)" stroke-width="80" stroke-linejoin="round" d="M 2667,19867 L 3906,18761 5146,17580 6385,17467 7625,16792 8864,15536 10104,15405 11343,13718 12583,13737 13822,12237 15062,13006 16300,11451 17540,10607 18779,8920 20019,8939 21258,9089 22498,7645 23737,6539 24977,8808 26217,5827"/>
 <path fill="none" stroke="rgb(197,0,11)" stroke-width="80" stroke-linejoin="round" d="M 2667,19867 L 3906,18704 5146,17580 6385,17467 7625,17055 8864,15424 10104,15386 11343,13737 12583,13605 13822,12162 15062,13024 16300,11488 17540,10420 18779,9107 20019,8733 21258,9107 22498,7758 23737,6371 24977,8770 26217,5602"/>
 <path fill="none" stroke="rgb(0,132,209)" stroke-width="80" stroke-linejoin="round" d="M 2667,19867 L 3906,18723 5146,17636 6385,17467 7625,17017 8864,15518 10104,15424 11343,13680 12583,13662 13822,11901 15062,13006 16300,11432 17540,10438 18779,9145 20019,8564 21258,9107 22498,7758 23737,6502 24977,8808 26217,5621"/>
 <path fill="none" stroke="rgb(0,69,134)" stroke-width="80" stroke-linejoin="round" d="M 2667,19867 L 3906,18723 5146,17636 6385,17467 7625,17017 8864,15518 10104,15124 11343,13680 12583,13662 13822,11956 15062,13043 16300,11394 17540,10438 18779,9089 20019,8564 21258,9107 22498,7833 23737,6446 24977,8826 26217,5958"/>
 <text class="TextShape"><tspan class="TextParagraph" font-family="Arial" font-size="353px" font-weight="400"><tspan class="TextPosition" x="2574" y="22366"><tspan fill="rgb(0,0,0)" stroke="none">1</tspan></tspan></tspan></text>
 <text class="TextShape"><tspan class="TextParagraph" font-family="Arial" font-size="353px" font-weight="400"><tspan class="TextPosition" x="3813" y="22366"><tspan fill="rgb(0,0,0)" stroke="none">2</tspan></tspan></tspan></text>
 <text class="TextShape"><tspan class="TextParagraph" font-family="Arial" font-size="353px" font-weight="400"><tspan class="TextPosition" x="5053" y="22366"><tspan fill="rgb(0,0,0)" stroke="none">3</tspan></tspan></tspan></text>
 <text class="TextShape"><tspan class="TextParagraph" font-family="Arial" font-size="353px" font-weight="400"><tspan class="TextPosition" x="6292" y="22366"><tspan fill="rgb(0,0,0)" stroke="none">4</tspan></tspan></tspan></text>
 <text class="TextShape"><tspan class="TextParagraph" font-family="Arial" font-size="353px" font-weight="400"><tspan class="TextPosition" x="7532" y="22366"><tspan fill="rgb(0,0,0)" stroke="none">5</tspan></tspan></tspan></text>
 <text class="TextShape"><tspan class="TextParagraph" font-family="Arial" font-size="353px" font-weight="400"><tspan class="TextPosition" x="8771" y="22366"><tspan fill="rgb(0,0,0)" stroke="none">6</tspan></tspan></tspan></text>
 <text class="TextShape"><tspan class="TextParagraph" font-family="Arial" font-size="353px" font-weight="400"><tspan class="TextPosition" x="10011" y="22366"><tspan fill="rgb(0,0,0)" stroke="none">7</tspan></tspan></tspan></text>
 <text class="TextShape"><tspan class="TextParagraph" font-family="Arial" font-size="353px" font-weight="400"><tspan class="TextPosition" x="11250" y="22366"><tspan fill="rgb(0,0,0)" stroke="none">8</tspan></tspan></tspan></text>
 <text class="TextShape"><tspan class="TextParagraph" font-family="Arial" font-size="353px" font-weight="400"><tspan class="TextPosition" x="12490" y="22366"><tspan fill="rgb(0,0,0)" stroke="none">9</tspan></tspan></tspan></text>
 <text class="TextShape"><tspan class="TextParagraph" font-family="Arial" font-size="353px" font-weight="400"><tspan class="TextPosition" x="13637" y="22366"><tspan fill="rgb(0,0,0)" stroke="none">10</tspan></tspan></tspan></text>
 <text class="TextShape"><tspan class="TextParagraph" font-family="Arial" font-size="353px" font-weight="400"><tspan class="TextPosition" x="14877" y="22366"><tspan fill="rgb(0,0,0)" stroke="none">11</tspan></tspan></tspan></text>
 <text class="TextShape"><tspan class="TextParagraph" font-family="Arial" font-size="353px" font-weight="400"><tspan class="TextPosition" x="16116" y="22366"><tspan fill="rgb(0,0,0)" stroke="none">12</tspan></tspan></tspan></text>
 <text class="TextShape"><tspan class="TextParagraph" font-family="Arial" font-size="353px" font-weight="400"><tspan class="TextPosition" x="17356" y="22366"><tspan fill="rgb(0,0,0)" stroke="none">13</tspan></tspan></tspan></text>
 <text class="TextShape"><tspan class="TextParagraph" font-family="Arial" font-size="353px" font-weight="400"><tspan class="TextPosition" x="18595" y="22366"><tspan fill="rgb(0,0,0)" stroke="none">14</tspan></tspan></tspan></text>
 <text class="TextShape"><tspan class="TextParagraph" font-family="Arial" font-size="353px" font-weight="400"><tspan class="TextPosition" x="19835" y="22366"><tspan fill="rgb(0,0,0)" stroke="none">15</tspan></tspan></tspan></text>
 <text class="TextShape"><tspan class="TextParagraph" font-family="Arial" font-size="353px" font-weight="400"><tspan class="TextPosition" x="21074" y="22366"><tspan fill="rgb(0,0,0)" stroke="none">16</tspan></tspan></tspan></text>
 <text class="TextShape"><tspan class="TextParagraph" font-family="Arial" font-size="353px" font-weight="400"><tspan class="TextPosition" x="22314" y="22366"><tspan fill="rgb(0,0,0)" stroke="none">17</tspan></tspan></tspan></text>
 <text class="TextShape"><tspan class="TextParagraph" font-family="Arial" font-size="353px" font-weight="400"><tspan class="TextPosition" x="23553" y="22366"><tspan fill="rgb(0,0,0)" stroke="none">18</tspan></tspan></tspan></text>
 <text class="TextShape"><tspan class="TextParagraph" font-family="Arial" font-size="353px" font-weight="400"><tspan class="TextPosition" x="24793" y="22366"><tspan fill="rgb(0,0,0)" stroke="none">19</tspan></tspan></tspan></text>
 <text class="TextShape"><tspan class="TextParagraph" font-family="Arial" font-size="353px" font-weight="400"><tspan class="TextPosition" x="26033" y="22366"><tspan fill="rgb(0,0,0)" stroke="none">20</tspan></tspan></tspan></text>
 <text class="TextShape"><tspan class="TextParagraph" font-family="Arial" font-size="353px" font-weight="400"><tspan class="TextPosition" x="2232" y="21919"><tspan fill="rgb(0,0,0)" stroke="none">0</tspan></tspan></tspan></text>
 <text class="TextShape"><tspan class="TextParagraph" font-family="Arial" font-size="353px" font-weight="400"><tspan class="TextPosition" x="1861" y="20044"><tspan fill="rgb(0,0,0)" stroke="none">200</tspan></tspan></tspan></text>
 <text class="TextShape"><tspan class="TextParagraph" font-family="Arial" font-size="353px" font-weight="400"><tspan class="TextPosition" x="1861" y="18169"><tspan fill="rgb(0,0,0)" stroke="none">400</tspan></tspan></tspan></text>
 <text class="TextShape"><tspan class="TextParagraph" font-family="Arial" font-size="353px" font-weight="400"><tspan class="TextPosition" x="1861" y="16295"><tspan fill="rgb(0,0,0)" stroke="none">600</tspan></tspan></tspan></text>
 <text class="TextShape"><tspan class="TextParagraph" font-family="Arial" font-size="353px" font-weight="400"><tspan class="TextPosition" x="1861" y="14420"><tspan fill="rgb(0,0,0)" stroke="none">800</tspan></tspan></tspan></text>
 <text class="TextShape"><tspan class="TextParagraph" font-family="Arial" font-size="353px" font-weight="400"><tspan class="TextPosition" x="1676" y="12545"><tspan fill="rgb(0,0,0)" stroke="none">1000</tspan></tspan></tspan></text>
 <text class="TextShape"><tspan class="TextParagraph" font-family="Arial" font-size="353px" font-weight="400"><tspan class="TextPosition" x="1676" y="10671"><tspan fill="rgb(0,0,0)" stroke="none">1200</tspan></tspan></tspan></text>
 <text class="TextShape"><tspan class="TextParagraph" font-family="Arial" font-size="353px" font-weight="400"><tspan class="TextPosition" x="1676" y="8796"><tspan fill="rgb(0,0,0)" stroke="none">1400</tspan></tspan></tspan></text>
 <text class="TextShape"><tspan class="TextParagraph" font-family="Arial" font-size="353px" font-weight="400"><tspan class="TextPosition" x="1676" y="6922"><tspan fill="rgb(0,0,0)" stroke="none">1600</tspan></tspan></tspan></text>
 <text class="TextShape"><tspan class="TextParagraph" font-family="Arial" font-size="353px" font-weight="400"><tspan class="TextPosition" x="1676" y="5047"><tspan fill="rgb(0,0,0)" stroke="none">1800</tspan></tspan></tspan></text>
 <text class="TextShape"><tspan class="TextParagraph" font-family="Arial" font-size="353px" font-weight="400"><tspan class="TextPosition" x="1676" y="3172"><tspan fill="rgb(0,0,0)" stroke="none">2000</tspan></tspan></tspan></text>
 <text class="TextShape"><tspan class="TextParagraph" font-family="Arial" font-size="459px" font-weight="400"><tspan class="TextPosition" x="12068" y="1816"><tspan fill="rgb(0,0,0)" stroke="none">Variation of parameters cener_center</tspan></tspan></tspan></text>
 <path fill="none" stroke="rgb(0,69,134)" stroke-width="80" stroke-linejoin="round" d="M 27769,8964 L 28569,8964"/>
 <path fill="none" stroke="rgb(255,66,14)" stroke-width="80" stroke-linejoin="round" d="M 27769,9462 L 28569,9462"/>
 <path fill="none" stroke="rgb(255,211,32)" stroke-width="80" stroke-linejoin="round" d="M 27769,9960 L 28569,9960"/>
 <path fill="none" stroke="rgb(87,157,28)" stroke-width="80" stroke-linejoin="round" d="M 27769,10458 L 28569,10458"/>
 <path fill="none" stroke="rgb(126,0,33)" stroke-width="80" stroke-linejoin="round" d="M 27769,10956 L 28569,10956"/>
 <path fill="none" stroke="rgb(131,202,255)" stroke-width="80" stroke-linejoin="round" d="M 27769,11454 L 28569,11454"/>
 <path fill="none" stroke="rgb(49,64,4)" stroke-width="80" stroke-linejoin="round" d="M 27769,11952 L 28569,11952"/>
 <path fill="none" stroke="rgb(174,207,0)" stroke-width="80" stroke-linejoin="round" d="M 27769,12449 L 28569,12449"/>
 <path fill="none" stroke="rgb(75,31,111)" stroke-width="80" stroke-linejoin="round" d="M 27769,12947 L 28569,12947"/>
 <path fill="none" stroke="rgb(255,149,14)" stroke-width="80" stroke-linejoin="round" d="M 27769,13445 L 28569,13445"/>
 <path fill="none" stroke="rgb(197,0,11)" stroke-width="80" stroke-linejoin="round" d="M 27769,13943 L 28569,13943"/>
 <path fill="none" stroke="rgb(0,132,209)" stroke-width="80" stroke-linejoin="round" d="M 27769,14441 L 28569,14441"/>
 <path fill="none" stroke="rgb(0,69,134)" stroke-width="80" stroke-linejoin="round" d="M 27769,14939 L 28569,14939"/>
 <text class="TextShape"><tspan class="TextParagraph" font-family="Arial" font-size="353px" font-weight="400"><tspan class="TextPosition" x="28669" y="9084"><tspan fill="rgb(0,0,0)" stroke="none">Initial_Value</tspan></tspan></tspan></text>
 <text class="TextShape"><tspan class="TextParagraph" font-family="Arial" font-size="353px" font-weight="400"><tspan class="TextPosition" x="28669" y="9582"><tspan fill="rgb(0,0,0)" stroke="none">Random_Value</tspan></tspan></tspan></text>
 <text class="TextShape"><tspan class="TextParagraph" font-family="Arial" font-size="353px" font-weight="400"><tspan class="TextPosition" x="28669" y="10080"><tspan fill="rgb(0,0,0)" stroke="none">0</tspan></tspan></tspan></text>
 <text class="TextShape"><tspan class="TextParagraph" font-family="Arial" font-size="353px" font-weight="400"><tspan class="TextPosition" x="28669" y="10578"><tspan fill="rgb(0,0,0)" stroke="none">0.1</tspan></tspan></tspan></text>
 <text class="TextShape"><tspan class="TextParagraph" font-family="Arial" font-size="353px" font-weight="400"><tspan class="TextPosition" x="28669" y="11076"><tspan fill="rgb(0,0,0)" stroke="none">0.2</tspan></tspan></tspan></text>
 <text class="TextShape"><tspan class="TextParagraph" font-family="Arial" font-size="353px" font-weight="400"><tspan class="TextPosition" x="28669" y="11574"><tspan fill="rgb(0,0,0)" stroke="none">0.3</tspan></tspan></tspan></text>
 <text class="TextShape"><tspan class="TextParagraph" font-family="Arial" font-size="353px" font-weight="400"><tspan class="TextPosition" x="28669" y="12071"><tspan fill="rgb(0,0,0)" stroke="none">0.4</tspan></tspan></tspan></text>
 <text class="TextShape"><tspan class="TextParagraph" font-family="Arial" font-size="353px" font-weight="400"><tspan class="TextPosition" x="28669" y="12569"><tspan fill="rgb(0,0,0)" stroke="none">0.5</tspan></tspan></tspan></text>
 <text class="TextShape"><tspan class="TextParagraph" font-family="Arial" font-size="353px" font-weight="400"><tspan class="TextPosition" x="28669" y="13067"><tspan fill="rgb(0,0,0)" stroke="none">0.6</tspan></tspan></tspan></text>
 <text class="TextShape"><tspan class="TextParagraph" font-family="Arial" font-size="353px" font-weight="400"><tspan class="TextPosition" x="28669" y="13565"><tspan fill="rgb(0,0,0)" stroke="none">0.7</tspan></tspan></tspan></text>
 <text class="TextShape"><tspan class="TextParagraph" font-family="Arial" font-size="353px" font-weight="400"><tspan class="TextPosition" x="28669" y="14063"><tspan fill="rgb(0,0,0)" stroke="none">0.8</tspan></tspan></tspan></text>
 <text class="TextShape"><tspan class="TextParagraph" font-family="Arial" font-size="353px" font-weight="400"><tspan class="TextPosition" x="28669" y="14561"><tspan fill="rgb(0,0,0)" stroke="none">0.9</tspan></tspan></tspan></text>
 <text class="TextShape"><tspan class="TextParagraph" font-family="Arial" font-size="353px" font-weight="400"><tspan class="TextPosition" x="28669" y="15059"><tspan fill="rgb(0,0,0)" stroke="none">1</tspan></tspan></tspan></text>
 <text class="TextShape"><tspan class="TextParagraph" font-family="Arial" font-size="318px" font-weight="400"><tspan class="TextPosition" x="13206" y="23311"><tspan fill="rgb(0,0,0)" stroke="none">Data Points</tspan></tspan></tspan></text>
 <text class="TextShape"><tspan class="TextParagraph" font-family="Arial" font-size="318px" font-weight="400"><tspan class="TextPosition" x="876" y="13205" transform="translate(876,13205) rotate(-89.9) translate(-876,-13205)"><tspan fill="rgb(0,0,0)" stroke="none">Entropy</tspan></tspan></tspan></text>
</svg>